%TF.GenerationSoftware,KiCad,Pcbnew,(5.99.0-12550-g77f47b6e47)*%
%TF.CreationDate,2021-11-06T20:02:58+00:00*%
%TF.ProjectId,max1709,6d617831-3730-4392-9e6b-696361645f70,rev?*%
%TF.SameCoordinates,Original*%
%TF.FileFunction,Legend,Bot*%
%TF.FilePolarity,Positive*%
%FSLAX46Y46*%
G04 Gerber Fmt 4.6, Leading zero omitted, Abs format (unit mm)*
G04 Created by KiCad (PCBNEW (5.99.0-12550-g77f47b6e47)) date 2021-11-06 20:02:58*
%MOMM*%
%LPD*%
G01*
G04 APERTURE LIST*
%ADD10C,0.150000*%
%ADD11C,0.010000*%
G04 APERTURE END LIST*
D10*
X238250000Y-140678571D02*
X238250000Y-141892857D01*
X238321428Y-142035714D01*
X238392857Y-142107142D01*
X238535714Y-142178571D01*
X238750000Y-142178571D01*
X238892857Y-142107142D01*
X238250000Y-141607142D02*
X238392857Y-141678571D01*
X238678571Y-141678571D01*
X238821428Y-141607142D01*
X238892857Y-141535714D01*
X238964285Y-141392857D01*
X238964285Y-140964285D01*
X238892857Y-140821428D01*
X238821428Y-140750000D01*
X238678571Y-140678571D01*
X238392857Y-140678571D01*
X238250000Y-140750000D01*
X237535714Y-141678571D02*
X237535714Y-140678571D01*
X237535714Y-140178571D02*
X237607142Y-140250000D01*
X237535714Y-140321428D01*
X237464285Y-140250000D01*
X237535714Y-140178571D01*
X237535714Y-140321428D01*
X237035714Y-140678571D02*
X236464285Y-140678571D01*
X236821428Y-140178571D02*
X236821428Y-141464285D01*
X236750000Y-141607142D01*
X236607142Y-141678571D01*
X236464285Y-141678571D01*
X235964285Y-141678571D02*
X235964285Y-140178571D01*
X235321428Y-141678571D02*
X235321428Y-140892857D01*
X235392857Y-140750000D01*
X235535714Y-140678571D01*
X235750000Y-140678571D01*
X235892857Y-140750000D01*
X235964285Y-140821428D01*
X233964285Y-140678571D02*
X233964285Y-141678571D01*
X234607142Y-140678571D02*
X234607142Y-141464285D01*
X234535714Y-141607142D01*
X234392857Y-141678571D01*
X234178571Y-141678571D01*
X234035714Y-141607142D01*
X233964285Y-141535714D01*
X233250000Y-141678571D02*
X233250000Y-140178571D01*
X233250000Y-140750000D02*
X233107142Y-140678571D01*
X232821428Y-140678571D01*
X232678571Y-140750000D01*
X232607142Y-140821428D01*
X232535714Y-140964285D01*
X232535714Y-141392857D01*
X232607142Y-141535714D01*
X232678571Y-141607142D01*
X232821428Y-141678571D01*
X233107142Y-141678571D01*
X233250000Y-141607142D01*
X231892857Y-141535714D02*
X231821428Y-141607142D01*
X231892857Y-141678571D01*
X231964285Y-141607142D01*
X231892857Y-141535714D01*
X231892857Y-141678571D01*
X230535714Y-141607142D02*
X230678571Y-141678571D01*
X230964285Y-141678571D01*
X231107142Y-141607142D01*
X231178571Y-141535714D01*
X231250000Y-141392857D01*
X231250000Y-140964285D01*
X231178571Y-140821428D01*
X231107142Y-140750000D01*
X230964285Y-140678571D01*
X230678571Y-140678571D01*
X230535714Y-140750000D01*
X229678571Y-141678571D02*
X229821428Y-141607142D01*
X229892857Y-141535714D01*
X229964285Y-141392857D01*
X229964285Y-140964285D01*
X229892857Y-140821428D01*
X229821428Y-140750000D01*
X229678571Y-140678571D01*
X229464285Y-140678571D01*
X229321428Y-140750000D01*
X229250000Y-140821428D01*
X229178571Y-140964285D01*
X229178571Y-141392857D01*
X229250000Y-141535714D01*
X229321428Y-141607142D01*
X229464285Y-141678571D01*
X229678571Y-141678571D01*
X228535714Y-141678571D02*
X228535714Y-140678571D01*
X228535714Y-140821428D02*
X228464285Y-140750000D01*
X228321428Y-140678571D01*
X228107142Y-140678571D01*
X227964285Y-140750000D01*
X227892857Y-140892857D01*
X227892857Y-141678571D01*
X227892857Y-140892857D02*
X227821428Y-140750000D01*
X227678571Y-140678571D01*
X227464285Y-140678571D01*
X227321428Y-140750000D01*
X227250000Y-140892857D01*
X227250000Y-141678571D01*
X225464285Y-140107142D02*
X226750000Y-142035714D01*
X224321428Y-141607142D02*
X224464285Y-141678571D01*
X224750000Y-141678571D01*
X224892857Y-141607142D01*
X224964285Y-141535714D01*
X225035714Y-141392857D01*
X225035714Y-140964285D01*
X224964285Y-140821428D01*
X224892857Y-140750000D01*
X224750000Y-140678571D01*
X224464285Y-140678571D01*
X224321428Y-140750000D01*
X223678571Y-141678571D02*
X223678571Y-140678571D01*
X223678571Y-140178571D02*
X223750000Y-140250000D01*
X223678571Y-140321428D01*
X223607142Y-140250000D01*
X223678571Y-140178571D01*
X223678571Y-140321428D01*
X222964285Y-140678571D02*
X222964285Y-141678571D01*
X222964285Y-140821428D02*
X222892857Y-140750000D01*
X222750000Y-140678571D01*
X222535714Y-140678571D01*
X222392857Y-140750000D01*
X222321428Y-140892857D01*
X222321428Y-141678571D01*
X221607142Y-140678571D02*
X221607142Y-141678571D01*
X221607142Y-140821428D02*
X221535714Y-140750000D01*
X221392857Y-140678571D01*
X221178571Y-140678571D01*
X221035714Y-140750000D01*
X220964285Y-140892857D01*
X220964285Y-141678571D01*
X219607142Y-141678571D02*
X219607142Y-140892857D01*
X219678571Y-140750000D01*
X219821428Y-140678571D01*
X220107142Y-140678571D01*
X220250000Y-140750000D01*
X219607142Y-141607142D02*
X219750000Y-141678571D01*
X220107142Y-141678571D01*
X220250000Y-141607142D01*
X220321428Y-141464285D01*
X220321428Y-141321428D01*
X220250000Y-141178571D01*
X220107142Y-141107142D01*
X219750000Y-141107142D01*
X219607142Y-141035714D01*
X218892857Y-141678571D02*
X218892857Y-140678571D01*
X218892857Y-140821428D02*
X218821428Y-140750000D01*
X218678571Y-140678571D01*
X218464285Y-140678571D01*
X218321428Y-140750000D01*
X218250000Y-140892857D01*
X218250000Y-141678571D01*
X218250000Y-140892857D02*
X218178571Y-140750000D01*
X218035714Y-140678571D01*
X217821428Y-140678571D01*
X217678571Y-140750000D01*
X217607142Y-140892857D01*
X217607142Y-141678571D01*
X216678571Y-141678571D02*
X216821428Y-141607142D01*
X216892857Y-141535714D01*
X216964285Y-141392857D01*
X216964285Y-140964285D01*
X216892857Y-140821428D01*
X216821428Y-140750000D01*
X216678571Y-140678571D01*
X216464285Y-140678571D01*
X216321428Y-140750000D01*
X216250000Y-140821428D01*
X216178571Y-140964285D01*
X216178571Y-141392857D01*
X216250000Y-141535714D01*
X216321428Y-141607142D01*
X216464285Y-141678571D01*
X216678571Y-141678571D01*
X215535714Y-140678571D02*
X215535714Y-141678571D01*
X215535714Y-140821428D02*
X215464285Y-140750000D01*
X215321428Y-140678571D01*
X215107142Y-140678571D01*
X214964285Y-140750000D01*
X214892857Y-140892857D01*
X214892857Y-141678571D01*
X213535714Y-141678571D02*
X213535714Y-140178571D01*
X213535714Y-141607142D02*
X213678571Y-141678571D01*
X213964285Y-141678571D01*
X214107142Y-141607142D01*
X214178571Y-141535714D01*
X214250000Y-141392857D01*
X214250000Y-140964285D01*
X214178571Y-140821428D01*
X214107142Y-140750000D01*
X213964285Y-140678571D01*
X213678571Y-140678571D01*
X213535714Y-140750000D01*
X212250000Y-141607142D02*
X212392857Y-141678571D01*
X212678571Y-141678571D01*
X212821428Y-141607142D01*
X212892857Y-141464285D01*
X212892857Y-140892857D01*
X212821428Y-140750000D01*
X212678571Y-140678571D01*
X212392857Y-140678571D01*
X212250000Y-140750000D01*
X212178571Y-140892857D01*
X212178571Y-141035714D01*
X212892857Y-141178571D01*
X211678571Y-140678571D02*
X211321428Y-141678571D01*
X210964285Y-140678571D01*
D11*
%TO.C,REF\u002A\u002A*%
X233046834Y-118836506D02*
X232860916Y-118929204D01*
X232860916Y-118929204D02*
X232696820Y-119099885D01*
X232696820Y-119099885D02*
X232651628Y-119163107D01*
X232651628Y-119163107D02*
X232602396Y-119245834D01*
X232602396Y-119245834D02*
X232570453Y-119335687D01*
X232570453Y-119335687D02*
X232552178Y-119455608D01*
X232552178Y-119455608D02*
X232543952Y-119628537D01*
X232543952Y-119628537D02*
X232542145Y-119856835D01*
X232542145Y-119856835D02*
X232550303Y-120169693D01*
X232550303Y-120169693D02*
X232578659Y-120404598D01*
X232578659Y-120404598D02*
X232633038Y-120579847D01*
X232633038Y-120579847D02*
X232719263Y-120713738D01*
X232719263Y-120713738D02*
X232843159Y-120824569D01*
X232843159Y-120824569D02*
X232852263Y-120831131D01*
X232852263Y-120831131D02*
X232974366Y-120898256D01*
X232974366Y-120898256D02*
X233121400Y-120931467D01*
X233121400Y-120931467D02*
X233308396Y-120939655D01*
X233308396Y-120939655D02*
X233612387Y-120939655D01*
X233612387Y-120939655D02*
X233612515Y-121234762D01*
X233612515Y-121234762D02*
X233615344Y-121399117D01*
X233615344Y-121399117D02*
X233632582Y-121495523D01*
X233632582Y-121495523D02*
X233677630Y-121553343D01*
X233677630Y-121553343D02*
X233763886Y-121601941D01*
X233763886Y-121601941D02*
X233784601Y-121611869D01*
X233784601Y-121611869D02*
X233881538Y-121658398D01*
X233881538Y-121658398D02*
X233956593Y-121687786D01*
X233956593Y-121687786D02*
X234012402Y-121690324D01*
X234012402Y-121690324D02*
X234051603Y-121656302D01*
X234051603Y-121656302D02*
X234076832Y-121576012D01*
X234076832Y-121576012D02*
X234090728Y-121439743D01*
X234090728Y-121439743D02*
X234095927Y-121237787D01*
X234095927Y-121237787D02*
X234095066Y-120960434D01*
X234095066Y-120960434D02*
X234090784Y-120597976D01*
X234090784Y-120597976D02*
X234089447Y-120489560D01*
X234089447Y-120489560D02*
X234084629Y-120115837D01*
X234084629Y-120115837D02*
X234080313Y-119871369D01*
X234080313Y-119871369D02*
X233612643Y-119871369D01*
X233612643Y-119871369D02*
X233610015Y-120078877D01*
X233610015Y-120078877D02*
X233598333Y-120214645D01*
X233598333Y-120214645D02*
X233571903Y-120304192D01*
X233571903Y-120304192D02*
X233525031Y-120373039D01*
X233525031Y-120373039D02*
X233493207Y-120406618D01*
X233493207Y-120406618D02*
X233363108Y-120504869D01*
X233363108Y-120504869D02*
X233247921Y-120512866D01*
X233247921Y-120512866D02*
X233129066Y-120431730D01*
X233129066Y-120431730D02*
X233126053Y-120428736D01*
X233126053Y-120428736D02*
X233077695Y-120366030D01*
X233077695Y-120366030D02*
X233048278Y-120280808D01*
X233048278Y-120280808D02*
X233033440Y-120149564D01*
X233033440Y-120149564D02*
X233028819Y-119948793D01*
X233028819Y-119948793D02*
X233028735Y-119904314D01*
X233028735Y-119904314D02*
X233039902Y-119627639D01*
X233039902Y-119627639D02*
X233076253Y-119435842D01*
X233076253Y-119435842D02*
X233142059Y-119318757D01*
X233142059Y-119318757D02*
X233241593Y-119266215D01*
X233241593Y-119266215D02*
X233299119Y-119260920D01*
X233299119Y-119260920D02*
X233435649Y-119285767D01*
X233435649Y-119285767D02*
X233529298Y-119367581D01*
X233529298Y-119367581D02*
X233585670Y-119517270D01*
X233585670Y-119517270D02*
X233610367Y-119745743D01*
X233610367Y-119745743D02*
X233612643Y-119871369D01*
X233612643Y-119871369D02*
X234080313Y-119871369D01*
X234080313Y-119871369D02*
X234079522Y-119826587D01*
X234079522Y-119826587D02*
X234072922Y-119608970D01*
X234072922Y-119608970D02*
X234063623Y-119450146D01*
X234063623Y-119450146D02*
X234050423Y-119337274D01*
X234050423Y-119337274D02*
X234032115Y-119257513D01*
X234032115Y-119257513D02*
X234007497Y-119198023D01*
X234007497Y-119198023D02*
X233975363Y-119145963D01*
X233975363Y-119145963D02*
X233961585Y-119126373D01*
X233961585Y-119126373D02*
X233778812Y-118941328D01*
X233778812Y-118941328D02*
X233547724Y-118836412D01*
X233547724Y-118836412D02*
X233280410Y-118807163D01*
X233280410Y-118807163D02*
X233046834Y-118836506D01*
X233046834Y-118836506D02*
X233046834Y-118836506D01*
G36*
X234089447Y-120489560D02*
G01*
X234090784Y-120597976D01*
X234095066Y-120960434D01*
X234095927Y-121237787D01*
X234090728Y-121439743D01*
X234076832Y-121576012D01*
X234051603Y-121656302D01*
X234012402Y-121690324D01*
X233956593Y-121687786D01*
X233881538Y-121658398D01*
X233784601Y-121611869D01*
X233763886Y-121601941D01*
X233677630Y-121553343D01*
X233632582Y-121495523D01*
X233615344Y-121399117D01*
X233612515Y-121234762D01*
X233612387Y-120939655D01*
X233308396Y-120939655D01*
X233121400Y-120931467D01*
X232974366Y-120898256D01*
X232852263Y-120831131D01*
X232843159Y-120824569D01*
X232719263Y-120713738D01*
X232633038Y-120579847D01*
X232578659Y-120404598D01*
X232550303Y-120169693D01*
X232543383Y-119904314D01*
X233028735Y-119904314D01*
X233028819Y-119948793D01*
X233033440Y-120149564D01*
X233048278Y-120280808D01*
X233077695Y-120366030D01*
X233126053Y-120428736D01*
X233129066Y-120431730D01*
X233247921Y-120512866D01*
X233363108Y-120504869D01*
X233493207Y-120406618D01*
X233525031Y-120373039D01*
X233571903Y-120304192D01*
X233598333Y-120214645D01*
X233610015Y-120078877D01*
X233612643Y-119871369D01*
X233610367Y-119745743D01*
X233585670Y-119517270D01*
X233529298Y-119367581D01*
X233435649Y-119285767D01*
X233299119Y-119260920D01*
X233241593Y-119266215D01*
X233142059Y-119318757D01*
X233076253Y-119435842D01*
X233039902Y-119627639D01*
X233028735Y-119904314D01*
X232543383Y-119904314D01*
X232542145Y-119856835D01*
X232543952Y-119628537D01*
X232552178Y-119455608D01*
X232570453Y-119335687D01*
X232602396Y-119245834D01*
X232651628Y-119163107D01*
X232696820Y-119099885D01*
X232860916Y-118929204D01*
X233046834Y-118836506D01*
X233280410Y-118807163D01*
X233547724Y-118836412D01*
X233778812Y-118941328D01*
X233961585Y-119126373D01*
X233975363Y-119145963D01*
X234007497Y-119198023D01*
X234032115Y-119257513D01*
X234050423Y-119337274D01*
X234063623Y-119450146D01*
X234072922Y-119608970D01*
X234079522Y-119826587D01*
X234080313Y-119871369D01*
X234084629Y-120115837D01*
X234089447Y-120489560D01*
G37*
X234089447Y-120489560D02*
X234090784Y-120597976D01*
X234095066Y-120960434D01*
X234095927Y-121237787D01*
X234090728Y-121439743D01*
X234076832Y-121576012D01*
X234051603Y-121656302D01*
X234012402Y-121690324D01*
X233956593Y-121687786D01*
X233881538Y-121658398D01*
X233784601Y-121611869D01*
X233763886Y-121601941D01*
X233677630Y-121553343D01*
X233632582Y-121495523D01*
X233615344Y-121399117D01*
X233612515Y-121234762D01*
X233612387Y-120939655D01*
X233308396Y-120939655D01*
X233121400Y-120931467D01*
X232974366Y-120898256D01*
X232852263Y-120831131D01*
X232843159Y-120824569D01*
X232719263Y-120713738D01*
X232633038Y-120579847D01*
X232578659Y-120404598D01*
X232550303Y-120169693D01*
X232543383Y-119904314D01*
X233028735Y-119904314D01*
X233028819Y-119948793D01*
X233033440Y-120149564D01*
X233048278Y-120280808D01*
X233077695Y-120366030D01*
X233126053Y-120428736D01*
X233129066Y-120431730D01*
X233247921Y-120512866D01*
X233363108Y-120504869D01*
X233493207Y-120406618D01*
X233525031Y-120373039D01*
X233571903Y-120304192D01*
X233598333Y-120214645D01*
X233610015Y-120078877D01*
X233612643Y-119871369D01*
X233610367Y-119745743D01*
X233585670Y-119517270D01*
X233529298Y-119367581D01*
X233435649Y-119285767D01*
X233299119Y-119260920D01*
X233241593Y-119266215D01*
X233142059Y-119318757D01*
X233076253Y-119435842D01*
X233039902Y-119627639D01*
X233028735Y-119904314D01*
X232543383Y-119904314D01*
X232542145Y-119856835D01*
X232543952Y-119628537D01*
X232552178Y-119455608D01*
X232570453Y-119335687D01*
X232602396Y-119245834D01*
X232651628Y-119163107D01*
X232696820Y-119099885D01*
X232860916Y-118929204D01*
X233046834Y-118836506D01*
X233280410Y-118807163D01*
X233547724Y-118836412D01*
X233778812Y-118941328D01*
X233961585Y-119126373D01*
X233975363Y-119145963D01*
X234007497Y-119198023D01*
X234032115Y-119257513D01*
X234050423Y-119337274D01*
X234063623Y-119450146D01*
X234072922Y-119608970D01*
X234079522Y-119826587D01*
X234080313Y-119871369D01*
X234084629Y-120115837D01*
X234089447Y-120489560D01*
X229304284Y-118862865D02*
X229148128Y-118953190D01*
X229148128Y-118953190D02*
X229039559Y-119042845D01*
X229039559Y-119042845D02*
X228960155Y-119136776D01*
X228960155Y-119136776D02*
X228905454Y-119251646D01*
X228905454Y-119251646D02*
X228870990Y-119404114D01*
X228870990Y-119404114D02*
X228852299Y-119610844D01*
X228852299Y-119610844D02*
X228844919Y-119888496D01*
X228844919Y-119888496D02*
X228844061Y-120088086D01*
X228844061Y-120088086D02*
X228844061Y-120822766D01*
X228844061Y-120822766D02*
X229050862Y-120915472D01*
X229050862Y-120915472D02*
X229257662Y-121008179D01*
X229257662Y-121008179D02*
X229281992Y-120203492D01*
X229281992Y-120203492D02*
X229292045Y-119902966D01*
X229292045Y-119902966D02*
X229302591Y-119684835D01*
X229302591Y-119684835D02*
X229315657Y-119534186D01*
X229315657Y-119534186D02*
X229333271Y-119436107D01*
X229333271Y-119436107D02*
X229357461Y-119375688D01*
X229357461Y-119375688D02*
X229390254Y-119338016D01*
X229390254Y-119338016D02*
X229400775Y-119329862D01*
X229400775Y-119329862D02*
X229560187Y-119266178D01*
X229560187Y-119266178D02*
X229721321Y-119291378D01*
X229721321Y-119291378D02*
X229817241Y-119358238D01*
X229817241Y-119358238D02*
X229856259Y-119405616D01*
X229856259Y-119405616D02*
X229883267Y-119467787D01*
X229883267Y-119467787D02*
X229900432Y-119562039D01*
X229900432Y-119562039D02*
X229909918Y-119705657D01*
X229909918Y-119705657D02*
X229913893Y-119915931D01*
X229913893Y-119915931D02*
X229914559Y-120135070D01*
X229914559Y-120135070D02*
X229914690Y-120409999D01*
X229914690Y-120409999D02*
X229919397Y-120604602D01*
X229919397Y-120604602D02*
X229935154Y-120735851D01*
X229935154Y-120735851D02*
X229968433Y-120820718D01*
X229968433Y-120820718D02*
X230025707Y-120876177D01*
X230025707Y-120876177D02*
X230113447Y-120919201D01*
X230113447Y-120919201D02*
X230230638Y-120963907D01*
X230230638Y-120963907D02*
X230358632Y-121012571D01*
X230358632Y-121012571D02*
X230343396Y-120148910D01*
X230343396Y-120148910D02*
X230337261Y-119837565D01*
X230337261Y-119837565D02*
X230330082Y-119607483D01*
X230330082Y-119607483D02*
X230319795Y-119442614D01*
X230319795Y-119442614D02*
X230304330Y-119326909D01*
X230304330Y-119326909D02*
X230281621Y-119244316D01*
X230281621Y-119244316D02*
X230249601Y-119178788D01*
X230249601Y-119178788D02*
X230210997Y-119120974D01*
X230210997Y-119120974D02*
X230024747Y-118936283D01*
X230024747Y-118936283D02*
X229797479Y-118829481D01*
X229797479Y-118829481D02*
X229550291Y-118803898D01*
X229550291Y-118803898D02*
X229304284Y-118862865D01*
X229304284Y-118862865D02*
X229304284Y-118862865D01*
G36*
X229797479Y-118829481D02*
G01*
X230024747Y-118936283D01*
X230210997Y-119120974D01*
X230249601Y-119178788D01*
X230281621Y-119244316D01*
X230304330Y-119326909D01*
X230319795Y-119442614D01*
X230330082Y-119607483D01*
X230337261Y-119837565D01*
X230343396Y-120148910D01*
X230358632Y-121012571D01*
X230230638Y-120963907D01*
X230113447Y-120919201D01*
X230025707Y-120876177D01*
X229968433Y-120820718D01*
X229935154Y-120735851D01*
X229919397Y-120604602D01*
X229914690Y-120409999D01*
X229914559Y-120135070D01*
X229913893Y-119915931D01*
X229909918Y-119705657D01*
X229900432Y-119562039D01*
X229883267Y-119467787D01*
X229856259Y-119405616D01*
X229817241Y-119358238D01*
X229721321Y-119291378D01*
X229560187Y-119266178D01*
X229400775Y-119329862D01*
X229390254Y-119338016D01*
X229357461Y-119375688D01*
X229333271Y-119436107D01*
X229315657Y-119534186D01*
X229302591Y-119684835D01*
X229292045Y-119902966D01*
X229281992Y-120203492D01*
X229257662Y-121008179D01*
X229050862Y-120915472D01*
X228844061Y-120822766D01*
X228844061Y-120088086D01*
X228844919Y-119888496D01*
X228852299Y-119610844D01*
X228870990Y-119404114D01*
X228905454Y-119251646D01*
X228960155Y-119136776D01*
X229039559Y-119042845D01*
X229148128Y-118953190D01*
X229304284Y-118862865D01*
X229550291Y-118803898D01*
X229797479Y-118829481D01*
G37*
X229797479Y-118829481D02*
X230024747Y-118936283D01*
X230210997Y-119120974D01*
X230249601Y-119178788D01*
X230281621Y-119244316D01*
X230304330Y-119326909D01*
X230319795Y-119442614D01*
X230330082Y-119607483D01*
X230337261Y-119837565D01*
X230343396Y-120148910D01*
X230358632Y-121012571D01*
X230230638Y-120963907D01*
X230113447Y-120919201D01*
X230025707Y-120876177D01*
X229968433Y-120820718D01*
X229935154Y-120735851D01*
X229919397Y-120604602D01*
X229914690Y-120409999D01*
X229914559Y-120135070D01*
X229913893Y-119915931D01*
X229909918Y-119705657D01*
X229900432Y-119562039D01*
X229883267Y-119467787D01*
X229856259Y-119405616D01*
X229817241Y-119358238D01*
X229721321Y-119291378D01*
X229560187Y-119266178D01*
X229400775Y-119329862D01*
X229390254Y-119338016D01*
X229357461Y-119375688D01*
X229333271Y-119436107D01*
X229315657Y-119534186D01*
X229302591Y-119684835D01*
X229292045Y-119902966D01*
X229281992Y-120203492D01*
X229257662Y-121008179D01*
X229050862Y-120915472D01*
X228844061Y-120822766D01*
X228844061Y-120088086D01*
X228844919Y-119888496D01*
X228852299Y-119610844D01*
X228870990Y-119404114D01*
X228905454Y-119251646D01*
X228960155Y-119136776D01*
X229039559Y-119042845D01*
X229148128Y-118953190D01*
X229304284Y-118862865D01*
X229550291Y-118803898D01*
X229797479Y-118829481D01*
X234919632Y-118843358D02*
X234691564Y-118963280D01*
X234691564Y-118963280D02*
X234523248Y-119156278D01*
X234523248Y-119156278D02*
X234463459Y-119280355D01*
X234463459Y-119280355D02*
X234416934Y-119466653D01*
X234416934Y-119466653D02*
X234393118Y-119702045D01*
X234393118Y-119702045D02*
X234390860Y-119958952D01*
X234390860Y-119958952D02*
X234409008Y-120209799D01*
X234409008Y-120209799D02*
X234446411Y-120427009D01*
X234446411Y-120427009D02*
X234501916Y-120583005D01*
X234501916Y-120583005D02*
X234518975Y-120609871D01*
X234518975Y-120609871D02*
X234721030Y-120810415D01*
X234721030Y-120810415D02*
X234961022Y-120930529D01*
X234961022Y-120930529D02*
X235221434Y-120965680D01*
X235221434Y-120965680D02*
X235484753Y-120911337D01*
X235484753Y-120911337D02*
X235558033Y-120878756D01*
X235558033Y-120878756D02*
X235700739Y-120778353D01*
X235700739Y-120778353D02*
X235825986Y-120645225D01*
X235825986Y-120645225D02*
X235837823Y-120628341D01*
X235837823Y-120628341D02*
X235885935Y-120546969D01*
X235885935Y-120546969D02*
X235917738Y-120459984D01*
X235917738Y-120459984D02*
X235936526Y-120345475D01*
X235936526Y-120345475D02*
X235945592Y-120181530D01*
X235945592Y-120181530D02*
X235948229Y-119946240D01*
X235948229Y-119946240D02*
X235948275Y-119893487D01*
X235948275Y-119893487D02*
X235948154Y-119876699D01*
X235948154Y-119876699D02*
X235461685Y-119876699D01*
X235461685Y-119876699D02*
X235458854Y-120098761D01*
X235458854Y-120098761D02*
X235447712Y-120246123D01*
X235447712Y-120246123D02*
X235424291Y-120341308D01*
X235424291Y-120341308D02*
X235384619Y-120406837D01*
X235384619Y-120406837D02*
X235364367Y-120428736D01*
X235364367Y-120428736D02*
X235247940Y-120511953D01*
X235247940Y-120511953D02*
X235134902Y-120508158D01*
X235134902Y-120508158D02*
X235020609Y-120435973D01*
X235020609Y-120435973D02*
X234952441Y-120358911D01*
X234952441Y-120358911D02*
X234912070Y-120246429D01*
X234912070Y-120246429D02*
X234889398Y-120069055D01*
X234889398Y-120069055D02*
X234887843Y-120048367D01*
X234887843Y-120048367D02*
X234883973Y-119726911D01*
X234883973Y-119726911D02*
X234924417Y-119488167D01*
X234924417Y-119488167D02*
X235008626Y-119333600D01*
X235008626Y-119333600D02*
X235136053Y-119264678D01*
X235136053Y-119264678D02*
X235181540Y-119260920D01*
X235181540Y-119260920D02*
X235300981Y-119279821D01*
X235300981Y-119279821D02*
X235382683Y-119345306D01*
X235382683Y-119345306D02*
X235432637Y-119470544D01*
X235432637Y-119470544D02*
X235456834Y-119668704D01*
X235456834Y-119668704D02*
X235461685Y-119876699D01*
X235461685Y-119876699D02*
X235948154Y-119876699D01*
X235948154Y-119876699D02*
X235946463Y-119642765D01*
X235946463Y-119642765D02*
X235938853Y-119467582D01*
X235938853Y-119467582D02*
X235922186Y-119346191D01*
X235922186Y-119346191D02*
X235893201Y-119256847D01*
X235893201Y-119256847D02*
X235848640Y-119177803D01*
X235848640Y-119177803D02*
X235838793Y-119163107D01*
X235838793Y-119163107D02*
X235673280Y-118965011D01*
X235673280Y-118965011D02*
X235492930Y-118850014D01*
X235492930Y-118850014D02*
X235273365Y-118804365D01*
X235273365Y-118804365D02*
X235198805Y-118802135D01*
X235198805Y-118802135D02*
X234919632Y-118843358D01*
X234919632Y-118843358D02*
X234919632Y-118843358D01*
G36*
X235948229Y-119946240D02*
G01*
X235945592Y-120181530D01*
X235936526Y-120345475D01*
X235917738Y-120459984D01*
X235885935Y-120546969D01*
X235837823Y-120628341D01*
X235825986Y-120645225D01*
X235700739Y-120778353D01*
X235558033Y-120878756D01*
X235484753Y-120911337D01*
X235221434Y-120965680D01*
X234961022Y-120930529D01*
X234721030Y-120810415D01*
X234518975Y-120609871D01*
X234501916Y-120583005D01*
X234446411Y-120427009D01*
X234409008Y-120209799D01*
X234390860Y-119958952D01*
X234392899Y-119726911D01*
X234883973Y-119726911D01*
X234887843Y-120048367D01*
X234889398Y-120069055D01*
X234912070Y-120246429D01*
X234952441Y-120358911D01*
X235020609Y-120435973D01*
X235134902Y-120508158D01*
X235247940Y-120511953D01*
X235364367Y-120428736D01*
X235384619Y-120406837D01*
X235424291Y-120341308D01*
X235447712Y-120246123D01*
X235458854Y-120098761D01*
X235461685Y-119876699D01*
X235456834Y-119668704D01*
X235432637Y-119470544D01*
X235382683Y-119345306D01*
X235300981Y-119279821D01*
X235181540Y-119260920D01*
X235136053Y-119264678D01*
X235008626Y-119333600D01*
X234924417Y-119488167D01*
X234883973Y-119726911D01*
X234392899Y-119726911D01*
X234393118Y-119702045D01*
X234416934Y-119466653D01*
X234463459Y-119280355D01*
X234523248Y-119156278D01*
X234691564Y-118963280D01*
X234919632Y-118843358D01*
X235198805Y-118802135D01*
X235273365Y-118804365D01*
X235492930Y-118850014D01*
X235673280Y-118965011D01*
X235838793Y-119163107D01*
X235848640Y-119177803D01*
X235893201Y-119256847D01*
X235922186Y-119346191D01*
X235938853Y-119467582D01*
X235946463Y-119642765D01*
X235948154Y-119876699D01*
X235948275Y-119893487D01*
X235948229Y-119946240D01*
G37*
X235948229Y-119946240D02*
X235945592Y-120181530D01*
X235936526Y-120345475D01*
X235917738Y-120459984D01*
X235885935Y-120546969D01*
X235837823Y-120628341D01*
X235825986Y-120645225D01*
X235700739Y-120778353D01*
X235558033Y-120878756D01*
X235484753Y-120911337D01*
X235221434Y-120965680D01*
X234961022Y-120930529D01*
X234721030Y-120810415D01*
X234518975Y-120609871D01*
X234501916Y-120583005D01*
X234446411Y-120427009D01*
X234409008Y-120209799D01*
X234390860Y-119958952D01*
X234392899Y-119726911D01*
X234883973Y-119726911D01*
X234887843Y-120048367D01*
X234889398Y-120069055D01*
X234912070Y-120246429D01*
X234952441Y-120358911D01*
X235020609Y-120435973D01*
X235134902Y-120508158D01*
X235247940Y-120511953D01*
X235364367Y-120428736D01*
X235384619Y-120406837D01*
X235424291Y-120341308D01*
X235447712Y-120246123D01*
X235458854Y-120098761D01*
X235461685Y-119876699D01*
X235456834Y-119668704D01*
X235432637Y-119470544D01*
X235382683Y-119345306D01*
X235300981Y-119279821D01*
X235181540Y-119260920D01*
X235136053Y-119264678D01*
X235008626Y-119333600D01*
X234924417Y-119488167D01*
X234883973Y-119726911D01*
X234392899Y-119726911D01*
X234393118Y-119702045D01*
X234416934Y-119466653D01*
X234463459Y-119280355D01*
X234523248Y-119156278D01*
X234691564Y-118963280D01*
X234919632Y-118843358D01*
X235198805Y-118802135D01*
X235273365Y-118804365D01*
X235492930Y-118850014D01*
X235673280Y-118965011D01*
X235838793Y-119163107D01*
X235848640Y-119177803D01*
X235893201Y-119256847D01*
X235922186Y-119346191D01*
X235938853Y-119467582D01*
X235946463Y-119642765D01*
X235948154Y-119876699D01*
X235948275Y-119893487D01*
X235948229Y-119946240D01*
X231140747Y-118874461D02*
X230948903Y-119003519D01*
X230948903Y-119003519D02*
X230800648Y-119189915D01*
X230800648Y-119189915D02*
X230712084Y-119427109D01*
X230712084Y-119427109D02*
X230694172Y-119601691D01*
X230694172Y-119601691D02*
X230696206Y-119674544D01*
X230696206Y-119674544D02*
X230713240Y-119730324D01*
X230713240Y-119730324D02*
X230760064Y-119780298D01*
X230760064Y-119780298D02*
X230851473Y-119835733D01*
X230851473Y-119835733D02*
X231002258Y-119907896D01*
X231002258Y-119907896D02*
X231227213Y-120008055D01*
X231227213Y-120008055D02*
X231228352Y-120008558D01*
X231228352Y-120008558D02*
X231435415Y-120103396D01*
X231435415Y-120103396D02*
X231605212Y-120187609D01*
X231605212Y-120187609D02*
X231720388Y-120252133D01*
X231720388Y-120252133D02*
X231763590Y-120287900D01*
X231763590Y-120287900D02*
X231763601Y-120288188D01*
X231763601Y-120288188D02*
X231725525Y-120366074D01*
X231725525Y-120366074D02*
X231636484Y-120451924D01*
X231636484Y-120451924D02*
X231534263Y-120513769D01*
X231534263Y-120513769D02*
X231482474Y-120526054D01*
X231482474Y-120526054D02*
X231341184Y-120483564D01*
X231341184Y-120483564D02*
X231219512Y-120377152D01*
X231219512Y-120377152D02*
X231160145Y-120260156D01*
X231160145Y-120260156D02*
X231103033Y-120173905D01*
X231103033Y-120173905D02*
X230991161Y-120075681D01*
X230991161Y-120075681D02*
X230859654Y-119990827D01*
X230859654Y-119990827D02*
X230743632Y-119944681D01*
X230743632Y-119944681D02*
X230719371Y-119942146D01*
X230719371Y-119942146D02*
X230692062Y-119983868D01*
X230692062Y-119983868D02*
X230690416Y-120090519D01*
X230690416Y-120090519D02*
X230710486Y-120234321D01*
X230710486Y-120234321D02*
X230748322Y-120387501D01*
X230748322Y-120387501D02*
X230799977Y-120522283D01*
X230799977Y-120522283D02*
X230802586Y-120527516D01*
X230802586Y-120527516D02*
X230958031Y-120744557D01*
X230958031Y-120744557D02*
X231159493Y-120892185D01*
X231159493Y-120892185D02*
X231388288Y-120964644D01*
X231388288Y-120964644D02*
X231625733Y-120956177D01*
X231625733Y-120956177D02*
X231853146Y-120861027D01*
X231853146Y-120861027D02*
X231863257Y-120854337D01*
X231863257Y-120854337D02*
X232042150Y-120692211D01*
X232042150Y-120692211D02*
X232159780Y-120480682D01*
X232159780Y-120480682D02*
X232224877Y-120202543D01*
X232224877Y-120202543D02*
X232233613Y-120124398D01*
X232233613Y-120124398D02*
X232249086Y-119755549D01*
X232249086Y-119755549D02*
X232230537Y-119583541D01*
X232230537Y-119583541D02*
X231763601Y-119583541D01*
X231763601Y-119583541D02*
X231757534Y-119690838D01*
X231757534Y-119690838D02*
X231724351Y-119722152D01*
X231724351Y-119722152D02*
X231641623Y-119698725D01*
X231641623Y-119698725D02*
X231511221Y-119643348D01*
X231511221Y-119643348D02*
X231365457Y-119573932D01*
X231365457Y-119573932D02*
X231361834Y-119572094D01*
X231361834Y-119572094D02*
X231238283Y-119507108D01*
X231238283Y-119507108D02*
X231188697Y-119463740D01*
X231188697Y-119463740D02*
X231200925Y-119418275D01*
X231200925Y-119418275D02*
X231252412Y-119358536D01*
X231252412Y-119358536D02*
X231383399Y-119272085D01*
X231383399Y-119272085D02*
X231524462Y-119265733D01*
X231524462Y-119265733D02*
X231650995Y-119328649D01*
X231650995Y-119328649D02*
X231738392Y-119450003D01*
X231738392Y-119450003D02*
X231763601Y-119583541D01*
X231763601Y-119583541D02*
X232230537Y-119583541D01*
X232230537Y-119583541D02*
X232217260Y-119460435D01*
X232217260Y-119460435D02*
X232135609Y-119226382D01*
X232135609Y-119226382D02*
X232021939Y-119062413D01*
X232021939Y-119062413D02*
X231816775Y-118896716D01*
X231816775Y-118896716D02*
X231590786Y-118814519D01*
X231590786Y-118814519D02*
X231360075Y-118809281D01*
X231360075Y-118809281D02*
X231140747Y-118874461D01*
X231140747Y-118874461D02*
X231140747Y-118874461D01*
G36*
X232233613Y-120124398D02*
G01*
X232224877Y-120202543D01*
X232159780Y-120480682D01*
X232042150Y-120692211D01*
X231863257Y-120854337D01*
X231853146Y-120861027D01*
X231625733Y-120956177D01*
X231388288Y-120964644D01*
X231159493Y-120892185D01*
X230958031Y-120744557D01*
X230802586Y-120527516D01*
X230799977Y-120522283D01*
X230748322Y-120387501D01*
X230710486Y-120234321D01*
X230690416Y-120090519D01*
X230692062Y-119983868D01*
X230719371Y-119942146D01*
X230743632Y-119944681D01*
X230859654Y-119990827D01*
X230991161Y-120075681D01*
X231103033Y-120173905D01*
X231160145Y-120260156D01*
X231219512Y-120377152D01*
X231341184Y-120483564D01*
X231482474Y-120526054D01*
X231534263Y-120513769D01*
X231636484Y-120451924D01*
X231725525Y-120366074D01*
X231763601Y-120288188D01*
X231763590Y-120287900D01*
X231720388Y-120252133D01*
X231605212Y-120187609D01*
X231435415Y-120103396D01*
X231228352Y-120008558D01*
X231227213Y-120008055D01*
X231002258Y-119907896D01*
X230851473Y-119835733D01*
X230760064Y-119780298D01*
X230713240Y-119730324D01*
X230696206Y-119674544D01*
X230694172Y-119601691D01*
X230708326Y-119463740D01*
X231188697Y-119463740D01*
X231238283Y-119507108D01*
X231361834Y-119572094D01*
X231365457Y-119573932D01*
X231511221Y-119643348D01*
X231641623Y-119698725D01*
X231724351Y-119722152D01*
X231757534Y-119690838D01*
X231763601Y-119583541D01*
X231738392Y-119450003D01*
X231650995Y-119328649D01*
X231524462Y-119265733D01*
X231383399Y-119272085D01*
X231252412Y-119358536D01*
X231200925Y-119418275D01*
X231188697Y-119463740D01*
X230708326Y-119463740D01*
X230712084Y-119427109D01*
X230800648Y-119189915D01*
X230948903Y-119003519D01*
X231140747Y-118874461D01*
X231360075Y-118809281D01*
X231590786Y-118814519D01*
X231816775Y-118896716D01*
X232021939Y-119062413D01*
X232135609Y-119226382D01*
X232217260Y-119460435D01*
X232230537Y-119583541D01*
X232249086Y-119755549D01*
X232233613Y-120124398D01*
G37*
X232233613Y-120124398D02*
X232224877Y-120202543D01*
X232159780Y-120480682D01*
X232042150Y-120692211D01*
X231863257Y-120854337D01*
X231853146Y-120861027D01*
X231625733Y-120956177D01*
X231388288Y-120964644D01*
X231159493Y-120892185D01*
X230958031Y-120744557D01*
X230802586Y-120527516D01*
X230799977Y-120522283D01*
X230748322Y-120387501D01*
X230710486Y-120234321D01*
X230690416Y-120090519D01*
X230692062Y-119983868D01*
X230719371Y-119942146D01*
X230743632Y-119944681D01*
X230859654Y-119990827D01*
X230991161Y-120075681D01*
X231103033Y-120173905D01*
X231160145Y-120260156D01*
X231219512Y-120377152D01*
X231341184Y-120483564D01*
X231482474Y-120526054D01*
X231534263Y-120513769D01*
X231636484Y-120451924D01*
X231725525Y-120366074D01*
X231763601Y-120288188D01*
X231763590Y-120287900D01*
X231720388Y-120252133D01*
X231605212Y-120187609D01*
X231435415Y-120103396D01*
X231228352Y-120008558D01*
X231227213Y-120008055D01*
X231002258Y-119907896D01*
X230851473Y-119835733D01*
X230760064Y-119780298D01*
X230713240Y-119730324D01*
X230696206Y-119674544D01*
X230694172Y-119601691D01*
X230708326Y-119463740D01*
X231188697Y-119463740D01*
X231238283Y-119507108D01*
X231361834Y-119572094D01*
X231365457Y-119573932D01*
X231511221Y-119643348D01*
X231641623Y-119698725D01*
X231724351Y-119722152D01*
X231757534Y-119690838D01*
X231763601Y-119583541D01*
X231738392Y-119450003D01*
X231650995Y-119328649D01*
X231524462Y-119265733D01*
X231383399Y-119272085D01*
X231252412Y-119358536D01*
X231200925Y-119418275D01*
X231188697Y-119463740D01*
X230708326Y-119463740D01*
X230712084Y-119427109D01*
X230800648Y-119189915D01*
X230948903Y-119003519D01*
X231140747Y-118874461D01*
X231360075Y-118809281D01*
X231590786Y-118814519D01*
X231816775Y-118896716D01*
X232021939Y-119062413D01*
X232135609Y-119226382D01*
X232217260Y-119460435D01*
X232230537Y-119583541D01*
X232249086Y-119755549D01*
X232233613Y-120124398D01*
X227092337Y-118606429D02*
X227078077Y-118805313D01*
X227078077Y-118805313D02*
X227061698Y-118922511D01*
X227061698Y-118922511D02*
X227039002Y-118973632D01*
X227039002Y-118973632D02*
X227005788Y-118974286D01*
X227005788Y-118974286D02*
X226995019Y-118968183D01*
X226995019Y-118968183D02*
X226851767Y-118923997D01*
X226851767Y-118923997D02*
X226665425Y-118926577D01*
X226665425Y-118926577D02*
X226475976Y-118971999D01*
X226475976Y-118971999D02*
X226357483Y-119030759D01*
X226357483Y-119030759D02*
X226235991Y-119124631D01*
X226235991Y-119124631D02*
X226147177Y-119230865D01*
X226147177Y-119230865D02*
X226086208Y-119365850D01*
X226086208Y-119365850D02*
X226048250Y-119545976D01*
X226048250Y-119545976D02*
X226028468Y-119787633D01*
X226028468Y-119787633D02*
X226022030Y-120107211D01*
X226022030Y-120107211D02*
X226021914Y-120168516D01*
X226021914Y-120168516D02*
X226021839Y-120857147D01*
X226021839Y-120857147D02*
X226175077Y-120910566D01*
X226175077Y-120910566D02*
X226283913Y-120946908D01*
X226283913Y-120946908D02*
X226343626Y-120963828D01*
X226343626Y-120963828D02*
X226345383Y-120963985D01*
X226345383Y-120963985D02*
X226351264Y-120918100D01*
X226351264Y-120918100D02*
X226356268Y-120791539D01*
X226356268Y-120791539D02*
X226360016Y-120600941D01*
X226360016Y-120600941D02*
X226362127Y-120362948D01*
X226362127Y-120362948D02*
X226362452Y-120218252D01*
X226362452Y-120218252D02*
X226363129Y-119932955D01*
X226363129Y-119932955D02*
X226366614Y-119728480D01*
X226366614Y-119728480D02*
X226375088Y-119588334D01*
X226375088Y-119588334D02*
X226390734Y-119496023D01*
X226390734Y-119496023D02*
X226415731Y-119435053D01*
X226415731Y-119435053D02*
X226452262Y-119388931D01*
X226452262Y-119388931D02*
X226475071Y-119366720D01*
X226475071Y-119366720D02*
X226631751Y-119277214D01*
X226631751Y-119277214D02*
X226802726Y-119270511D01*
X226802726Y-119270511D02*
X226957850Y-119346208D01*
X226957850Y-119346208D02*
X226986537Y-119373539D01*
X226986537Y-119373539D02*
X227028613Y-119424929D01*
X227028613Y-119424929D02*
X227057799Y-119485886D01*
X227057799Y-119485886D02*
X227076429Y-119574025D01*
X227076429Y-119574025D02*
X227086839Y-119706961D01*
X227086839Y-119706961D02*
X227091363Y-119902309D01*
X227091363Y-119902309D02*
X227092337Y-120171652D01*
X227092337Y-120171652D02*
X227092337Y-120857147D01*
X227092337Y-120857147D02*
X227245575Y-120910566D01*
X227245575Y-120910566D02*
X227354411Y-120946908D01*
X227354411Y-120946908D02*
X227414124Y-120963828D01*
X227414124Y-120963828D02*
X227415881Y-120963985D01*
X227415881Y-120963985D02*
X227420375Y-120917414D01*
X227420375Y-120917414D02*
X227424425Y-120786051D01*
X227424425Y-120786051D02*
X227427870Y-120582422D01*
X227427870Y-120582422D02*
X227430547Y-120319054D01*
X227430547Y-120319054D02*
X227432294Y-120008471D01*
X227432294Y-120008471D02*
X227432949Y-119663201D01*
X227432949Y-119663201D02*
X227432950Y-119647843D01*
X227432950Y-119647843D02*
X227432950Y-118331701D01*
X227432950Y-118331701D02*
X227116666Y-118198289D01*
X227116666Y-118198289D02*
X227092337Y-118606429D01*
X227092337Y-118606429D02*
X227092337Y-118606429D01*
G36*
X227432950Y-118331701D02*
G01*
X227432950Y-119647843D01*
X227432949Y-119663201D01*
X227432294Y-120008471D01*
X227430547Y-120319054D01*
X227427870Y-120582422D01*
X227424425Y-120786051D01*
X227420375Y-120917414D01*
X227415881Y-120963985D01*
X227414124Y-120963828D01*
X227354411Y-120946908D01*
X227245575Y-120910566D01*
X227092337Y-120857147D01*
X227092337Y-120171652D01*
X227091363Y-119902309D01*
X227086839Y-119706961D01*
X227076429Y-119574025D01*
X227057799Y-119485886D01*
X227028613Y-119424929D01*
X226986537Y-119373539D01*
X226957850Y-119346208D01*
X226802726Y-119270511D01*
X226631751Y-119277214D01*
X226475071Y-119366720D01*
X226452262Y-119388931D01*
X226415731Y-119435053D01*
X226390734Y-119496023D01*
X226375088Y-119588334D01*
X226366614Y-119728480D01*
X226363129Y-119932955D01*
X226362452Y-120218252D01*
X226362127Y-120362948D01*
X226360016Y-120600941D01*
X226356268Y-120791539D01*
X226351264Y-120918100D01*
X226345383Y-120963985D01*
X226343626Y-120963828D01*
X226283913Y-120946908D01*
X226175077Y-120910566D01*
X226021839Y-120857147D01*
X226021914Y-120168516D01*
X226022030Y-120107211D01*
X226028468Y-119787633D01*
X226048250Y-119545976D01*
X226086208Y-119365850D01*
X226147177Y-119230865D01*
X226235991Y-119124631D01*
X226357483Y-119030759D01*
X226475976Y-118971999D01*
X226665425Y-118926577D01*
X226851767Y-118923997D01*
X226995019Y-118968183D01*
X227005788Y-118974286D01*
X227039002Y-118973632D01*
X227061698Y-118922511D01*
X227078077Y-118805313D01*
X227092337Y-118606429D01*
X227116666Y-118198289D01*
X227432950Y-118331701D01*
G37*
X227432950Y-118331701D02*
X227432950Y-119647843D01*
X227432949Y-119663201D01*
X227432294Y-120008471D01*
X227430547Y-120319054D01*
X227427870Y-120582422D01*
X227424425Y-120786051D01*
X227420375Y-120917414D01*
X227415881Y-120963985D01*
X227414124Y-120963828D01*
X227354411Y-120946908D01*
X227245575Y-120910566D01*
X227092337Y-120857147D01*
X227092337Y-120171652D01*
X227091363Y-119902309D01*
X227086839Y-119706961D01*
X227076429Y-119574025D01*
X227057799Y-119485886D01*
X227028613Y-119424929D01*
X226986537Y-119373539D01*
X226957850Y-119346208D01*
X226802726Y-119270511D01*
X226631751Y-119277214D01*
X226475071Y-119366720D01*
X226452262Y-119388931D01*
X226415731Y-119435053D01*
X226390734Y-119496023D01*
X226375088Y-119588334D01*
X226366614Y-119728480D01*
X226363129Y-119932955D01*
X226362452Y-120218252D01*
X226362127Y-120362948D01*
X226360016Y-120600941D01*
X226356268Y-120791539D01*
X226351264Y-120918100D01*
X226345383Y-120963985D01*
X226343626Y-120963828D01*
X226283913Y-120946908D01*
X226175077Y-120910566D01*
X226021839Y-120857147D01*
X226021914Y-120168516D01*
X226022030Y-120107211D01*
X226028468Y-119787633D01*
X226048250Y-119545976D01*
X226086208Y-119365850D01*
X226147177Y-119230865D01*
X226235991Y-119124631D01*
X226357483Y-119030759D01*
X226475976Y-118971999D01*
X226665425Y-118926577D01*
X226851767Y-118923997D01*
X226995019Y-118968183D01*
X227005788Y-118974286D01*
X227039002Y-118973632D01*
X227061698Y-118922511D01*
X227078077Y-118805313D01*
X227092337Y-118606429D01*
X227116666Y-118198289D01*
X227432950Y-118331701D01*
X224866759Y-118940601D02*
X224676095Y-119011403D01*
X224676095Y-119011403D02*
X224673914Y-119012764D01*
X224673914Y-119012764D02*
X224555994Y-119099550D01*
X224555994Y-119099550D02*
X224468940Y-119200973D01*
X224468940Y-119200973D02*
X224407714Y-119333145D01*
X224407714Y-119333145D02*
X224367277Y-119512182D01*
X224367277Y-119512182D02*
X224342591Y-119754195D01*
X224342591Y-119754195D02*
X224328618Y-120075299D01*
X224328618Y-120075299D02*
X224327393Y-120121048D01*
X224327393Y-120121048D02*
X224309800Y-120810869D01*
X224309800Y-120810869D02*
X224457848Y-120887427D01*
X224457848Y-120887427D02*
X224564970Y-120939163D01*
X224564970Y-120939163D02*
X224629649Y-120963678D01*
X224629649Y-120963678D02*
X224632641Y-120963985D01*
X224632641Y-120963985D02*
X224643834Y-120918751D01*
X224643834Y-120918751D02*
X224652725Y-120796736D01*
X224652725Y-120796736D02*
X224658194Y-120618468D01*
X224658194Y-120618468D02*
X224659387Y-120474116D01*
X224659387Y-120474116D02*
X224659414Y-120240271D01*
X224659414Y-120240271D02*
X224670104Y-120093419D01*
X224670104Y-120093419D02*
X224707367Y-120023376D01*
X224707367Y-120023376D02*
X224787112Y-120019958D01*
X224787112Y-120019958D02*
X224925251Y-120072983D01*
X224925251Y-120072983D02*
X225133812Y-120170454D01*
X225133812Y-120170454D02*
X225287171Y-120251409D01*
X225287171Y-120251409D02*
X225366048Y-120321644D01*
X225366048Y-120321644D02*
X225389236Y-120398194D01*
X225389236Y-120398194D02*
X225389272Y-120401982D01*
X225389272Y-120401982D02*
X225351007Y-120533852D01*
X225351007Y-120533852D02*
X225237717Y-120605091D01*
X225237717Y-120605091D02*
X225064336Y-120615410D01*
X225064336Y-120615410D02*
X224939450Y-120613620D01*
X224939450Y-120613620D02*
X224873601Y-120649589D01*
X224873601Y-120649589D02*
X224832536Y-120735985D01*
X224832536Y-120735985D02*
X224808901Y-120846054D01*
X224808901Y-120846054D02*
X224842961Y-120908508D01*
X224842961Y-120908508D02*
X224855786Y-120917446D01*
X224855786Y-120917446D02*
X224976528Y-120953343D01*
X224976528Y-120953343D02*
X225145612Y-120958426D01*
X225145612Y-120958426D02*
X225319739Y-120934631D01*
X225319739Y-120934631D02*
X225443124Y-120891147D01*
X225443124Y-120891147D02*
X225613713Y-120746309D01*
X225613713Y-120746309D02*
X225710681Y-120544694D01*
X225710681Y-120544694D02*
X225729885Y-120387180D01*
X225729885Y-120387180D02*
X225715230Y-120245104D01*
X225715230Y-120245104D02*
X225662199Y-120129127D01*
X225662199Y-120129127D02*
X225557194Y-120026121D01*
X225557194Y-120026121D02*
X225386614Y-119922954D01*
X225386614Y-119922954D02*
X225136862Y-119806496D01*
X225136862Y-119806496D02*
X225121647Y-119799914D01*
X225121647Y-119799914D02*
X224896671Y-119695981D01*
X224896671Y-119695981D02*
X224757843Y-119610743D01*
X224757843Y-119610743D02*
X224698338Y-119534147D01*
X224698338Y-119534147D02*
X224711328Y-119456139D01*
X224711328Y-119456139D02*
X224789988Y-119366664D01*
X224789988Y-119366664D02*
X224813510Y-119346073D01*
X224813510Y-119346073D02*
X224971067Y-119266236D01*
X224971067Y-119266236D02*
X225134323Y-119269597D01*
X225134323Y-119269597D02*
X225276505Y-119347874D01*
X225276505Y-119347874D02*
X225370840Y-119492781D01*
X225370840Y-119492781D02*
X225379605Y-119521224D01*
X225379605Y-119521224D02*
X225464962Y-119659174D01*
X225464962Y-119659174D02*
X225573271Y-119725620D01*
X225573271Y-119725620D02*
X225729885Y-119791471D01*
X225729885Y-119791471D02*
X225729885Y-119621097D01*
X225729885Y-119621097D02*
X225682244Y-119373454D01*
X225682244Y-119373454D02*
X225540841Y-119146307D01*
X225540841Y-119146307D02*
X225467258Y-119070318D01*
X225467258Y-119070318D02*
X225299991Y-118972790D01*
X225299991Y-118972790D02*
X225087274Y-118928640D01*
X225087274Y-118928640D02*
X224866759Y-118940601D01*
X224866759Y-118940601D02*
X224866759Y-118940601D01*
G36*
X225299991Y-118972790D02*
G01*
X225467258Y-119070318D01*
X225540841Y-119146307D01*
X225682244Y-119373454D01*
X225729885Y-119621097D01*
X225729885Y-119791471D01*
X225573271Y-119725620D01*
X225464962Y-119659174D01*
X225379605Y-119521224D01*
X225370840Y-119492781D01*
X225276505Y-119347874D01*
X225134323Y-119269597D01*
X224971067Y-119266236D01*
X224813510Y-119346073D01*
X224789988Y-119366664D01*
X224711328Y-119456139D01*
X224698338Y-119534147D01*
X224757843Y-119610743D01*
X224896671Y-119695981D01*
X225121647Y-119799914D01*
X225136862Y-119806496D01*
X225386614Y-119922954D01*
X225557194Y-120026121D01*
X225662199Y-120129127D01*
X225715230Y-120245104D01*
X225729885Y-120387180D01*
X225710681Y-120544694D01*
X225613713Y-120746309D01*
X225443124Y-120891147D01*
X225319739Y-120934631D01*
X225145612Y-120958426D01*
X224976528Y-120953343D01*
X224855786Y-120917446D01*
X224842961Y-120908508D01*
X224808901Y-120846054D01*
X224832536Y-120735985D01*
X224873601Y-120649589D01*
X224939450Y-120613620D01*
X225064336Y-120615410D01*
X225237717Y-120605091D01*
X225351007Y-120533852D01*
X225389272Y-120401982D01*
X225389236Y-120398194D01*
X225366048Y-120321644D01*
X225287171Y-120251409D01*
X225133812Y-120170454D01*
X224925251Y-120072983D01*
X224787112Y-120019958D01*
X224707367Y-120023376D01*
X224670104Y-120093419D01*
X224659414Y-120240271D01*
X224659387Y-120474116D01*
X224658194Y-120618468D01*
X224652725Y-120796736D01*
X224643834Y-120918751D01*
X224632641Y-120963985D01*
X224629649Y-120963678D01*
X224564970Y-120939163D01*
X224457848Y-120887427D01*
X224309800Y-120810869D01*
X224327393Y-120121048D01*
X224328618Y-120075299D01*
X224342591Y-119754195D01*
X224367277Y-119512182D01*
X224407714Y-119333145D01*
X224468940Y-119200973D01*
X224555994Y-119099550D01*
X224673914Y-119012764D01*
X224676095Y-119011403D01*
X224866759Y-118940601D01*
X225087274Y-118928640D01*
X225299991Y-118972790D01*
G37*
X225299991Y-118972790D02*
X225467258Y-119070318D01*
X225540841Y-119146307D01*
X225682244Y-119373454D01*
X225729885Y-119621097D01*
X225729885Y-119791471D01*
X225573271Y-119725620D01*
X225464962Y-119659174D01*
X225379605Y-119521224D01*
X225370840Y-119492781D01*
X225276505Y-119347874D01*
X225134323Y-119269597D01*
X224971067Y-119266236D01*
X224813510Y-119346073D01*
X224789988Y-119366664D01*
X224711328Y-119456139D01*
X224698338Y-119534147D01*
X224757843Y-119610743D01*
X224896671Y-119695981D01*
X225121647Y-119799914D01*
X225136862Y-119806496D01*
X225386614Y-119922954D01*
X225557194Y-120026121D01*
X225662199Y-120129127D01*
X225715230Y-120245104D01*
X225729885Y-120387180D01*
X225710681Y-120544694D01*
X225613713Y-120746309D01*
X225443124Y-120891147D01*
X225319739Y-120934631D01*
X225145612Y-120958426D01*
X224976528Y-120953343D01*
X224855786Y-120917446D01*
X224842961Y-120908508D01*
X224808901Y-120846054D01*
X224832536Y-120735985D01*
X224873601Y-120649589D01*
X224939450Y-120613620D01*
X225064336Y-120615410D01*
X225237717Y-120605091D01*
X225351007Y-120533852D01*
X225389272Y-120401982D01*
X225389236Y-120398194D01*
X225366048Y-120321644D01*
X225287171Y-120251409D01*
X225133812Y-120170454D01*
X224925251Y-120072983D01*
X224787112Y-120019958D01*
X224707367Y-120023376D01*
X224670104Y-120093419D01*
X224659414Y-120240271D01*
X224659387Y-120474116D01*
X224658194Y-120618468D01*
X224652725Y-120796736D01*
X224643834Y-120918751D01*
X224632641Y-120963985D01*
X224629649Y-120963678D01*
X224564970Y-120939163D01*
X224457848Y-120887427D01*
X224309800Y-120810869D01*
X224327393Y-120121048D01*
X224328618Y-120075299D01*
X224342591Y-119754195D01*
X224367277Y-119512182D01*
X224407714Y-119333145D01*
X224468940Y-119200973D01*
X224555994Y-119099550D01*
X224673914Y-119012764D01*
X224676095Y-119011403D01*
X224866759Y-118940601D01*
X225087274Y-118928640D01*
X225299991Y-118972790D01*
X223223428Y-118936534D02*
X223002391Y-119018099D01*
X223002391Y-119018099D02*
X222823317Y-119162366D01*
X222823317Y-119162366D02*
X222753280Y-119263920D01*
X222753280Y-119263920D02*
X222676929Y-119450268D01*
X222676929Y-119450268D02*
X222678515Y-119585010D01*
X222678515Y-119585010D02*
X222758653Y-119675631D01*
X222758653Y-119675631D02*
X222788304Y-119691040D01*
X222788304Y-119691040D02*
X222916326Y-119739084D01*
X222916326Y-119739084D02*
X222981706Y-119726776D01*
X222981706Y-119726776D02*
X223003852Y-119646098D01*
X223003852Y-119646098D02*
X223004980Y-119601533D01*
X223004980Y-119601533D02*
X223045523Y-119437581D01*
X223045523Y-119437581D02*
X223151198Y-119322891D01*
X223151198Y-119322891D02*
X223298076Y-119267497D01*
X223298076Y-119267497D02*
X223462227Y-119281435D01*
X223462227Y-119281435D02*
X223595663Y-119353827D01*
X223595663Y-119353827D02*
X223640731Y-119395120D01*
X223640731Y-119395120D02*
X223672677Y-119445216D01*
X223672677Y-119445216D02*
X223694256Y-119520942D01*
X223694256Y-119520942D02*
X223708227Y-119639128D01*
X223708227Y-119639128D02*
X223717345Y-119816600D01*
X223717345Y-119816600D02*
X223724369Y-120070186D01*
X223724369Y-120070186D02*
X223726188Y-120150479D01*
X223726188Y-120150479D02*
X223732822Y-120425158D01*
X223732822Y-120425158D02*
X223740364Y-120618481D01*
X223740364Y-120618481D02*
X223751675Y-120746388D01*
X223751675Y-120746388D02*
X223769615Y-120824822D01*
X223769615Y-120824822D02*
X223797045Y-120869725D01*
X223797045Y-120869725D02*
X223836823Y-120897038D01*
X223836823Y-120897038D02*
X223862290Y-120909105D01*
X223862290Y-120909105D02*
X223970444Y-120950367D01*
X223970444Y-120950367D02*
X224034110Y-120963985D01*
X224034110Y-120963985D02*
X224055146Y-120918505D01*
X224055146Y-120918505D02*
X224067987Y-120781006D01*
X224067987Y-120781006D02*
X224072700Y-120549902D01*
X224072700Y-120549902D02*
X224069356Y-120223604D01*
X224069356Y-120223604D02*
X224068314Y-120173276D01*
X224068314Y-120173276D02*
X224060965Y-119875581D01*
X224060965Y-119875581D02*
X224052274Y-119658205D01*
X224052274Y-119658205D02*
X224039908Y-119504153D01*
X224039908Y-119504153D02*
X224021530Y-119396430D01*
X224021530Y-119396430D02*
X223994805Y-119318042D01*
X223994805Y-119318042D02*
X223957398Y-119251994D01*
X223957398Y-119251994D02*
X223937830Y-119223691D01*
X223937830Y-119223691D02*
X223825634Y-119098467D01*
X223825634Y-119098467D02*
X223700150Y-119001063D01*
X223700150Y-119001063D02*
X223684787Y-118992561D01*
X223684787Y-118992561D02*
X223459777Y-118925433D01*
X223459777Y-118925433D02*
X223223428Y-118936534D01*
X223223428Y-118936534D02*
X223223428Y-118936534D01*
G36*
X223684787Y-118992561D02*
G01*
X223700150Y-119001063D01*
X223825634Y-119098467D01*
X223937830Y-119223691D01*
X223957398Y-119251994D01*
X223994805Y-119318042D01*
X224021530Y-119396430D01*
X224039908Y-119504153D01*
X224052274Y-119658205D01*
X224060965Y-119875581D01*
X224068314Y-120173276D01*
X224069356Y-120223604D01*
X224072700Y-120549902D01*
X224067987Y-120781006D01*
X224055146Y-120918505D01*
X224034110Y-120963985D01*
X223970444Y-120950367D01*
X223862290Y-120909105D01*
X223836823Y-120897038D01*
X223797045Y-120869725D01*
X223769615Y-120824822D01*
X223751675Y-120746388D01*
X223740364Y-120618481D01*
X223732822Y-120425158D01*
X223726188Y-120150479D01*
X223724369Y-120070186D01*
X223717345Y-119816600D01*
X223708227Y-119639128D01*
X223694256Y-119520942D01*
X223672677Y-119445216D01*
X223640731Y-119395120D01*
X223595663Y-119353827D01*
X223462227Y-119281435D01*
X223298076Y-119267497D01*
X223151198Y-119322891D01*
X223045523Y-119437581D01*
X223004980Y-119601533D01*
X223003852Y-119646098D01*
X222981706Y-119726776D01*
X222916326Y-119739084D01*
X222788304Y-119691040D01*
X222758653Y-119675631D01*
X222678515Y-119585010D01*
X222676929Y-119450268D01*
X222753280Y-119263920D01*
X222823317Y-119162366D01*
X223002391Y-119018099D01*
X223223428Y-118936534D01*
X223459777Y-118925433D01*
X223684787Y-118992561D01*
G37*
X223684787Y-118992561D02*
X223700150Y-119001063D01*
X223825634Y-119098467D01*
X223937830Y-119223691D01*
X223957398Y-119251994D01*
X223994805Y-119318042D01*
X224021530Y-119396430D01*
X224039908Y-119504153D01*
X224052274Y-119658205D01*
X224060965Y-119875581D01*
X224068314Y-120173276D01*
X224069356Y-120223604D01*
X224072700Y-120549902D01*
X224067987Y-120781006D01*
X224055146Y-120918505D01*
X224034110Y-120963985D01*
X223970444Y-120950367D01*
X223862290Y-120909105D01*
X223836823Y-120897038D01*
X223797045Y-120869725D01*
X223769615Y-120824822D01*
X223751675Y-120746388D01*
X223740364Y-120618481D01*
X223732822Y-120425158D01*
X223726188Y-120150479D01*
X223724369Y-120070186D01*
X223717345Y-119816600D01*
X223708227Y-119639128D01*
X223694256Y-119520942D01*
X223672677Y-119445216D01*
X223640731Y-119395120D01*
X223595663Y-119353827D01*
X223462227Y-119281435D01*
X223298076Y-119267497D01*
X223151198Y-119322891D01*
X223045523Y-119437581D01*
X223004980Y-119601533D01*
X223003852Y-119646098D01*
X222981706Y-119726776D01*
X222916326Y-119739084D01*
X222788304Y-119691040D01*
X222758653Y-119675631D01*
X222678515Y-119585010D01*
X222676929Y-119450268D01*
X222753280Y-119263920D01*
X222823317Y-119162366D01*
X223002391Y-119018099D01*
X223223428Y-118936534D01*
X223459777Y-118925433D01*
X223684787Y-118992561D01*
X221010143Y-119324093D02*
X221010761Y-119687769D01*
X221010761Y-119687769D02*
X221013153Y-119967532D01*
X221013153Y-119967532D02*
X221018329Y-120176784D01*
X221018329Y-120176784D02*
X221027296Y-120328926D01*
X221027296Y-120328926D02*
X221041064Y-120437359D01*
X221041064Y-120437359D02*
X221060639Y-120515485D01*
X221060639Y-120515485D02*
X221087032Y-120576707D01*
X221087032Y-120576707D02*
X221107016Y-120611652D01*
X221107016Y-120611652D02*
X221272517Y-120801157D01*
X221272517Y-120801157D02*
X221482352Y-120919942D01*
X221482352Y-120919942D02*
X221714514Y-120962564D01*
X221714514Y-120962564D02*
X221946992Y-120923583D01*
X221946992Y-120923583D02*
X222085428Y-120853532D01*
X222085428Y-120853532D02*
X222230758Y-120732353D01*
X222230758Y-120732353D02*
X222329805Y-120584354D01*
X222329805Y-120584354D02*
X222389565Y-120390534D01*
X222389565Y-120390534D02*
X222417031Y-120131892D01*
X222417031Y-120131892D02*
X222420921Y-119942146D01*
X222420921Y-119942146D02*
X222420397Y-119928510D01*
X222420397Y-119928510D02*
X222080459Y-119928510D01*
X222080459Y-119928510D02*
X222078383Y-120146096D01*
X222078383Y-120146096D02*
X222068870Y-120290134D01*
X222068870Y-120290134D02*
X222046992Y-120384364D01*
X222046992Y-120384364D02*
X222007824Y-120452523D01*
X222007824Y-120452523D02*
X221961024Y-120503936D01*
X221961024Y-120503936D02*
X221803854Y-120603175D01*
X221803854Y-120603175D02*
X221635100Y-120611653D01*
X221635100Y-120611653D02*
X221475607Y-120528799D01*
X221475607Y-120528799D02*
X221463193Y-120517572D01*
X221463193Y-120517572D02*
X221410209Y-120459171D01*
X221410209Y-120459171D02*
X221376986Y-120389686D01*
X221376986Y-120389686D02*
X221359000Y-120286270D01*
X221359000Y-120286270D02*
X221351725Y-120126073D01*
X221351725Y-120126073D02*
X221350574Y-119948965D01*
X221350574Y-119948965D02*
X221353068Y-119726467D01*
X221353068Y-119726467D02*
X221363392Y-119578037D01*
X221363392Y-119578037D02*
X221385809Y-119480489D01*
X221385809Y-119480489D02*
X221424582Y-119410637D01*
X221424582Y-119410637D02*
X221456374Y-119373539D01*
X221456374Y-119373539D02*
X221604061Y-119279975D01*
X221604061Y-119279975D02*
X221774154Y-119268725D01*
X221774154Y-119268725D02*
X221936508Y-119340190D01*
X221936508Y-119340190D02*
X221967840Y-119366720D01*
X221967840Y-119366720D02*
X222021178Y-119425636D01*
X222021178Y-119425636D02*
X222054469Y-119495837D01*
X222054469Y-119495837D02*
X222072344Y-119600418D01*
X222072344Y-119600418D02*
X222079434Y-119762479D01*
X222079434Y-119762479D02*
X222080459Y-119928510D01*
X222080459Y-119928510D02*
X222420397Y-119928510D01*
X222420397Y-119928510D02*
X222409160Y-119636579D01*
X222409160Y-119636579D02*
X222369213Y-119406993D01*
X222369213Y-119406993D02*
X222294087Y-119234387D01*
X222294087Y-119234387D02*
X222176786Y-119099760D01*
X222176786Y-119099760D02*
X222085428Y-119030759D01*
X222085428Y-119030759D02*
X221919373Y-118956214D01*
X221919373Y-118956214D02*
X221726908Y-118921613D01*
X221726908Y-118921613D02*
X221548001Y-118930875D01*
X221548001Y-118930875D02*
X221447892Y-118968238D01*
X221447892Y-118968238D02*
X221408607Y-118978872D01*
X221408607Y-118978872D02*
X221382539Y-118939225D01*
X221382539Y-118939225D02*
X221364342Y-118832981D01*
X221364342Y-118832981D02*
X221350574Y-118671145D01*
X221350574Y-118671145D02*
X221335501Y-118490902D01*
X221335501Y-118490902D02*
X221314564Y-118382458D01*
X221314564Y-118382458D02*
X221276468Y-118320446D01*
X221276468Y-118320446D02*
X221209915Y-118279499D01*
X221209915Y-118279499D02*
X221168103Y-118261366D01*
X221168103Y-118261366D02*
X221009961Y-118195120D01*
X221009961Y-118195120D02*
X221010143Y-119324093D01*
X221010143Y-119324093D02*
X221010143Y-119324093D01*
G36*
X222417031Y-120131892D02*
G01*
X222389565Y-120390534D01*
X222329805Y-120584354D01*
X222230758Y-120732353D01*
X222085428Y-120853532D01*
X221946992Y-120923583D01*
X221714514Y-120962564D01*
X221482352Y-120919942D01*
X221272517Y-120801157D01*
X221107016Y-120611652D01*
X221087032Y-120576707D01*
X221060639Y-120515485D01*
X221041064Y-120437359D01*
X221027296Y-120328926D01*
X221018329Y-120176784D01*
X221013153Y-119967532D01*
X221012994Y-119948965D01*
X221350574Y-119948965D01*
X221351725Y-120126073D01*
X221359000Y-120286270D01*
X221376986Y-120389686D01*
X221410209Y-120459171D01*
X221463193Y-120517572D01*
X221475607Y-120528799D01*
X221635100Y-120611653D01*
X221803854Y-120603175D01*
X221961024Y-120503936D01*
X222007824Y-120452523D01*
X222046992Y-120384364D01*
X222068870Y-120290134D01*
X222078383Y-120146096D01*
X222080459Y-119928510D01*
X222079434Y-119762479D01*
X222072344Y-119600418D01*
X222054469Y-119495837D01*
X222021178Y-119425636D01*
X221967840Y-119366720D01*
X221936508Y-119340190D01*
X221774154Y-119268725D01*
X221604061Y-119279975D01*
X221456374Y-119373539D01*
X221424582Y-119410637D01*
X221385809Y-119480489D01*
X221363392Y-119578037D01*
X221353068Y-119726467D01*
X221350574Y-119948965D01*
X221012994Y-119948965D01*
X221010761Y-119687769D01*
X221010143Y-119324093D01*
X221009961Y-118195120D01*
X221168103Y-118261366D01*
X221209915Y-118279499D01*
X221276468Y-118320446D01*
X221314564Y-118382458D01*
X221335501Y-118490902D01*
X221350574Y-118671145D01*
X221364342Y-118832981D01*
X221382539Y-118939225D01*
X221408607Y-118978872D01*
X221447892Y-118968238D01*
X221548001Y-118930875D01*
X221726908Y-118921613D01*
X221919373Y-118956214D01*
X222085428Y-119030759D01*
X222176786Y-119099760D01*
X222294087Y-119234387D01*
X222369213Y-119406993D01*
X222409160Y-119636579D01*
X222420397Y-119928510D01*
X222420921Y-119942146D01*
X222417031Y-120131892D01*
G37*
X222417031Y-120131892D02*
X222389565Y-120390534D01*
X222329805Y-120584354D01*
X222230758Y-120732353D01*
X222085428Y-120853532D01*
X221946992Y-120923583D01*
X221714514Y-120962564D01*
X221482352Y-120919942D01*
X221272517Y-120801157D01*
X221107016Y-120611652D01*
X221087032Y-120576707D01*
X221060639Y-120515485D01*
X221041064Y-120437359D01*
X221027296Y-120328926D01*
X221018329Y-120176784D01*
X221013153Y-119967532D01*
X221012994Y-119948965D01*
X221350574Y-119948965D01*
X221351725Y-120126073D01*
X221359000Y-120286270D01*
X221376986Y-120389686D01*
X221410209Y-120459171D01*
X221463193Y-120517572D01*
X221475607Y-120528799D01*
X221635100Y-120611653D01*
X221803854Y-120603175D01*
X221961024Y-120503936D01*
X222007824Y-120452523D01*
X222046992Y-120384364D01*
X222068870Y-120290134D01*
X222078383Y-120146096D01*
X222080459Y-119928510D01*
X222079434Y-119762479D01*
X222072344Y-119600418D01*
X222054469Y-119495837D01*
X222021178Y-119425636D01*
X221967840Y-119366720D01*
X221936508Y-119340190D01*
X221774154Y-119268725D01*
X221604061Y-119279975D01*
X221456374Y-119373539D01*
X221424582Y-119410637D01*
X221385809Y-119480489D01*
X221363392Y-119578037D01*
X221353068Y-119726467D01*
X221350574Y-119948965D01*
X221012994Y-119948965D01*
X221010761Y-119687769D01*
X221010143Y-119324093D01*
X221009961Y-118195120D01*
X221168103Y-118261366D01*
X221209915Y-118279499D01*
X221276468Y-118320446D01*
X221314564Y-118382458D01*
X221335501Y-118490902D01*
X221350574Y-118671145D01*
X221364342Y-118832981D01*
X221382539Y-118939225D01*
X221408607Y-118978872D01*
X221447892Y-118968238D01*
X221548001Y-118930875D01*
X221726908Y-118921613D01*
X221919373Y-118956214D01*
X222085428Y-119030759D01*
X222176786Y-119099760D01*
X222294087Y-119234387D01*
X222369213Y-119406993D01*
X222409160Y-119636579D01*
X222420397Y-119928510D01*
X222420921Y-119942146D01*
X222417031Y-120131892D01*
X219033127Y-118966400D02*
X219025701Y-119094422D01*
X219025701Y-119094422D02*
X219019882Y-119288985D01*
X219019882Y-119288985D02*
X219016141Y-119534702D01*
X219016141Y-119534702D02*
X219014942Y-119792426D01*
X219014942Y-119792426D02*
X219014942Y-120664545D01*
X219014942Y-120664545D02*
X219168925Y-120818528D01*
X219168925Y-120818528D02*
X219275037Y-120913412D01*
X219275037Y-120913412D02*
X219368184Y-120951845D01*
X219368184Y-120951845D02*
X219495496Y-120949413D01*
X219495496Y-120949413D02*
X219546032Y-120943223D01*
X219546032Y-120943223D02*
X219703983Y-120925210D01*
X219703983Y-120925210D02*
X219834629Y-120914888D01*
X219834629Y-120914888D02*
X219866475Y-120913935D01*
X219866475Y-120913935D02*
X219973834Y-120920171D01*
X219973834Y-120920171D02*
X220127381Y-120935824D01*
X220127381Y-120935824D02*
X220186917Y-120943223D01*
X220186917Y-120943223D02*
X220333143Y-120954668D01*
X220333143Y-120954668D02*
X220431411Y-120929808D01*
X220431411Y-120929808D02*
X220528850Y-120853058D01*
X220528850Y-120853058D02*
X220564024Y-120818528D01*
X220564024Y-120818528D02*
X220718007Y-120664545D01*
X220718007Y-120664545D02*
X220718007Y-119033246D01*
X220718007Y-119033246D02*
X220594070Y-118976776D01*
X220594070Y-118976776D02*
X220487350Y-118934950D01*
X220487350Y-118934950D02*
X220424913Y-118920307D01*
X220424913Y-118920307D02*
X220408904Y-118966583D01*
X220408904Y-118966583D02*
X220393942Y-119095884D01*
X220393942Y-119095884D02*
X220381022Y-119293914D01*
X220381022Y-119293914D02*
X220371143Y-119546380D01*
X220371143Y-119546380D02*
X220366378Y-119759675D01*
X220366378Y-119759675D02*
X220353065Y-120599042D01*
X220353065Y-120599042D02*
X220236920Y-120615464D01*
X220236920Y-120615464D02*
X220131284Y-120603982D01*
X220131284Y-120603982D02*
X220079523Y-120566805D01*
X220079523Y-120566805D02*
X220065055Y-120497298D01*
X220065055Y-120497298D02*
X220052702Y-120349240D01*
X220052702Y-120349240D02*
X220043448Y-120141391D01*
X220043448Y-120141391D02*
X220038272Y-119892512D01*
X220038272Y-119892512D02*
X220037526Y-119764435D01*
X220037526Y-119764435D02*
X220036781Y-119027145D01*
X220036781Y-119027145D02*
X219883543Y-118973726D01*
X219883543Y-118973726D02*
X219775084Y-118937406D01*
X219775084Y-118937406D02*
X219716087Y-118920468D01*
X219716087Y-118920468D02*
X219714386Y-118920307D01*
X219714386Y-118920307D02*
X219708467Y-118966349D01*
X219708467Y-118966349D02*
X219701961Y-119094018D01*
X219701961Y-119094018D02*
X219695414Y-119287632D01*
X219695414Y-119287632D02*
X219689373Y-119531507D01*
X219689373Y-119531507D02*
X219685152Y-119759675D01*
X219685152Y-119759675D02*
X219671839Y-120599042D01*
X219671839Y-120599042D02*
X219379885Y-120599042D01*
X219379885Y-120599042D02*
X219366487Y-119833275D01*
X219366487Y-119833275D02*
X219353090Y-119067508D01*
X219353090Y-119067508D02*
X219210762Y-118993908D01*
X219210762Y-118993908D02*
X219105678Y-118943366D01*
X219105678Y-118943366D02*
X219043483Y-118920431D01*
X219043483Y-118920431D02*
X219041688Y-118920307D01*
X219041688Y-118920307D02*
X219033127Y-118966400D01*
X219033127Y-118966400D02*
X219033127Y-118966400D01*
G36*
X220487350Y-118934950D02*
G01*
X220594070Y-118976776D01*
X220718007Y-119033246D01*
X220718007Y-120664545D01*
X220564024Y-120818528D01*
X220528850Y-120853058D01*
X220431411Y-120929808D01*
X220333143Y-120954668D01*
X220186917Y-120943223D01*
X220127381Y-120935824D01*
X219973834Y-120920171D01*
X219866475Y-120913935D01*
X219834629Y-120914888D01*
X219703983Y-120925210D01*
X219546032Y-120943223D01*
X219495496Y-120949413D01*
X219368184Y-120951845D01*
X219275037Y-120913412D01*
X219168925Y-120818528D01*
X219014942Y-120664545D01*
X219014942Y-119792426D01*
X219016141Y-119534702D01*
X219019882Y-119288985D01*
X219025701Y-119094422D01*
X219033127Y-118966400D01*
X219041688Y-118920307D01*
X219043483Y-118920431D01*
X219105678Y-118943366D01*
X219210762Y-118993908D01*
X219353090Y-119067508D01*
X219366487Y-119833275D01*
X219379885Y-120599042D01*
X219671839Y-120599042D01*
X219685152Y-119759675D01*
X219689373Y-119531507D01*
X219695414Y-119287632D01*
X219701961Y-119094018D01*
X219708467Y-118966349D01*
X219714386Y-118920307D01*
X219716087Y-118920468D01*
X219775084Y-118937406D01*
X219883543Y-118973726D01*
X220036781Y-119027145D01*
X220037526Y-119764435D01*
X220038272Y-119892512D01*
X220043448Y-120141391D01*
X220052702Y-120349240D01*
X220065055Y-120497298D01*
X220079523Y-120566805D01*
X220131284Y-120603982D01*
X220236920Y-120615464D01*
X220353065Y-120599042D01*
X220366378Y-119759675D01*
X220371143Y-119546380D01*
X220381022Y-119293914D01*
X220393942Y-119095884D01*
X220408904Y-118966583D01*
X220424913Y-118920307D01*
X220487350Y-118934950D01*
G37*
X220487350Y-118934950D02*
X220594070Y-118976776D01*
X220718007Y-119033246D01*
X220718007Y-120664545D01*
X220564024Y-120818528D01*
X220528850Y-120853058D01*
X220431411Y-120929808D01*
X220333143Y-120954668D01*
X220186917Y-120943223D01*
X220127381Y-120935824D01*
X219973834Y-120920171D01*
X219866475Y-120913935D01*
X219834629Y-120914888D01*
X219703983Y-120925210D01*
X219546032Y-120943223D01*
X219495496Y-120949413D01*
X219368184Y-120951845D01*
X219275037Y-120913412D01*
X219168925Y-120818528D01*
X219014942Y-120664545D01*
X219014942Y-119792426D01*
X219016141Y-119534702D01*
X219019882Y-119288985D01*
X219025701Y-119094422D01*
X219033127Y-118966400D01*
X219041688Y-118920307D01*
X219043483Y-118920431D01*
X219105678Y-118943366D01*
X219210762Y-118993908D01*
X219353090Y-119067508D01*
X219366487Y-119833275D01*
X219379885Y-120599042D01*
X219671839Y-120599042D01*
X219685152Y-119759675D01*
X219689373Y-119531507D01*
X219695414Y-119287632D01*
X219701961Y-119094018D01*
X219708467Y-118966349D01*
X219714386Y-118920307D01*
X219716087Y-118920468D01*
X219775084Y-118937406D01*
X219883543Y-118973726D01*
X220036781Y-119027145D01*
X220037526Y-119764435D01*
X220038272Y-119892512D01*
X220043448Y-120141391D01*
X220052702Y-120349240D01*
X220065055Y-120497298D01*
X220079523Y-120566805D01*
X220131284Y-120603982D01*
X220236920Y-120615464D01*
X220353065Y-120599042D01*
X220366378Y-119759675D01*
X220371143Y-119546380D01*
X220381022Y-119293914D01*
X220393942Y-119095884D01*
X220408904Y-118966583D01*
X220424913Y-118920307D01*
X220487350Y-118934950D01*
X217809322Y-118958594D02*
X217669218Y-119022323D01*
X217669218Y-119022323D02*
X217559250Y-119099543D01*
X217559250Y-119099543D02*
X217478676Y-119185887D01*
X217478676Y-119185887D02*
X217423046Y-119297272D01*
X217423046Y-119297272D02*
X217387911Y-119449616D01*
X217387911Y-119449616D02*
X217368821Y-119658835D01*
X217368821Y-119658835D02*
X217361328Y-119940846D01*
X217361328Y-119940846D02*
X217360536Y-120126555D01*
X217360536Y-120126555D02*
X217360536Y-120851046D01*
X217360536Y-120851046D02*
X217484473Y-120907515D01*
X217484473Y-120907515D02*
X217582090Y-120948787D01*
X217582090Y-120948787D02*
X217630450Y-120963985D01*
X217630450Y-120963985D02*
X217639702Y-120918762D01*
X217639702Y-120918762D02*
X217647042Y-120796824D01*
X217647042Y-120796824D02*
X217651536Y-120618772D01*
X217651536Y-120618772D02*
X217652490Y-120477395D01*
X217652490Y-120477395D02*
X217656590Y-120273146D01*
X217656590Y-120273146D02*
X217667646Y-120111113D01*
X217667646Y-120111113D02*
X217683789Y-120011891D01*
X217683789Y-120011891D02*
X217696613Y-119990805D01*
X217696613Y-119990805D02*
X217782814Y-120012338D01*
X217782814Y-120012338D02*
X217918138Y-120067566D01*
X217918138Y-120067566D02*
X218074830Y-120142436D01*
X218074830Y-120142436D02*
X218225137Y-120222892D01*
X218225137Y-120222892D02*
X218341307Y-120294880D01*
X218341307Y-120294880D02*
X218395587Y-120344346D01*
X218395587Y-120344346D02*
X218395802Y-120344881D01*
X218395802Y-120344881D02*
X218391133Y-120436428D01*
X218391133Y-120436428D02*
X218349268Y-120523820D01*
X218349268Y-120523820D02*
X218275765Y-120594802D01*
X218275765Y-120594802D02*
X218168484Y-120618543D01*
X218168484Y-120618543D02*
X218076798Y-120615777D01*
X218076798Y-120615777D02*
X217946942Y-120613741D01*
X217946942Y-120613741D02*
X217878779Y-120644164D01*
X217878779Y-120644164D02*
X217837841Y-120724543D01*
X217837841Y-120724543D02*
X217832679Y-120739700D01*
X217832679Y-120739700D02*
X217814933Y-120854331D01*
X217814933Y-120854331D02*
X217862391Y-120923934D01*
X217862391Y-120923934D02*
X217986093Y-120957105D01*
X217986093Y-120957105D02*
X218119719Y-120963240D01*
X218119719Y-120963240D02*
X218360183Y-120917763D01*
X218360183Y-120917763D02*
X218484662Y-120852817D01*
X218484662Y-120852817D02*
X218638395Y-120700246D01*
X218638395Y-120700246D02*
X218719927Y-120512971D01*
X218719927Y-120512971D02*
X218727244Y-120315085D01*
X218727244Y-120315085D02*
X218658331Y-120130685D01*
X218658331Y-120130685D02*
X218554672Y-120015134D01*
X218554672Y-120015134D02*
X218451177Y-119950442D01*
X218451177Y-119950442D02*
X218288508Y-119868542D01*
X218288508Y-119868542D02*
X218098946Y-119785486D01*
X218098946Y-119785486D02*
X218067350Y-119772795D01*
X218067350Y-119772795D02*
X217859131Y-119680908D01*
X217859131Y-119680908D02*
X217739102Y-119599923D01*
X217739102Y-119599923D02*
X217700499Y-119519413D01*
X217700499Y-119519413D02*
X217736560Y-119428950D01*
X217736560Y-119428950D02*
X217798467Y-119358238D01*
X217798467Y-119358238D02*
X217944787Y-119271170D01*
X217944787Y-119271170D02*
X218105783Y-119264640D01*
X218105783Y-119264640D02*
X218253427Y-119331735D01*
X218253427Y-119331735D02*
X218359690Y-119465544D01*
X218359690Y-119465544D02*
X218373638Y-119500067D01*
X218373638Y-119500067D02*
X218454840Y-119627042D01*
X218454840Y-119627042D02*
X218573392Y-119721309D01*
X218573392Y-119721309D02*
X218722988Y-119798668D01*
X218722988Y-119798668D02*
X218722988Y-119579307D01*
X218722988Y-119579307D02*
X218714183Y-119445280D01*
X218714183Y-119445280D02*
X218676430Y-119339644D01*
X218676430Y-119339644D02*
X218592721Y-119226939D01*
X218592721Y-119226939D02*
X218512364Y-119140127D01*
X218512364Y-119140127D02*
X218387409Y-119017204D01*
X218387409Y-119017204D02*
X218290323Y-118951171D01*
X218290323Y-118951171D02*
X218186046Y-118924684D01*
X218186046Y-118924684D02*
X218068011Y-118920307D01*
X218068011Y-118920307D02*
X217809322Y-118958594D01*
X217809322Y-118958594D02*
X217809322Y-118958594D01*
G36*
X218186046Y-118924684D02*
G01*
X218290323Y-118951171D01*
X218387409Y-119017204D01*
X218512364Y-119140127D01*
X218592721Y-119226939D01*
X218676430Y-119339644D01*
X218714183Y-119445280D01*
X218722988Y-119579307D01*
X218722988Y-119798668D01*
X218573392Y-119721309D01*
X218454840Y-119627042D01*
X218373638Y-119500067D01*
X218359690Y-119465544D01*
X218253427Y-119331735D01*
X218105783Y-119264640D01*
X217944787Y-119271170D01*
X217798467Y-119358238D01*
X217736560Y-119428950D01*
X217700499Y-119519413D01*
X217739102Y-119599923D01*
X217859131Y-119680908D01*
X218067350Y-119772795D01*
X218098946Y-119785486D01*
X218288508Y-119868542D01*
X218451177Y-119950442D01*
X218554672Y-120015134D01*
X218658331Y-120130685D01*
X218727244Y-120315085D01*
X218719927Y-120512971D01*
X218638395Y-120700246D01*
X218484662Y-120852817D01*
X218360183Y-120917763D01*
X218119719Y-120963240D01*
X217986093Y-120957105D01*
X217862391Y-120923934D01*
X217814933Y-120854331D01*
X217832679Y-120739700D01*
X217837841Y-120724543D01*
X217878779Y-120644164D01*
X217946942Y-120613741D01*
X218076798Y-120615777D01*
X218168484Y-120618543D01*
X218275765Y-120594802D01*
X218349268Y-120523820D01*
X218391133Y-120436428D01*
X218395802Y-120344881D01*
X218395587Y-120344346D01*
X218341307Y-120294880D01*
X218225137Y-120222892D01*
X218074830Y-120142436D01*
X217918138Y-120067566D01*
X217782814Y-120012338D01*
X217696613Y-119990805D01*
X217683789Y-120011891D01*
X217667646Y-120111113D01*
X217656590Y-120273146D01*
X217652490Y-120477395D01*
X217651536Y-120618772D01*
X217647042Y-120796824D01*
X217639702Y-120918762D01*
X217630450Y-120963985D01*
X217582090Y-120948787D01*
X217484473Y-120907515D01*
X217360536Y-120851046D01*
X217360536Y-120126555D01*
X217361328Y-119940846D01*
X217368821Y-119658835D01*
X217387911Y-119449616D01*
X217423046Y-119297272D01*
X217478676Y-119185887D01*
X217559250Y-119099543D01*
X217669218Y-119022323D01*
X217809322Y-118958594D01*
X218068011Y-118920307D01*
X218186046Y-118924684D01*
G37*
X218186046Y-118924684D02*
X218290323Y-118951171D01*
X218387409Y-119017204D01*
X218512364Y-119140127D01*
X218592721Y-119226939D01*
X218676430Y-119339644D01*
X218714183Y-119445280D01*
X218722988Y-119579307D01*
X218722988Y-119798668D01*
X218573392Y-119721309D01*
X218454840Y-119627042D01*
X218373638Y-119500067D01*
X218359690Y-119465544D01*
X218253427Y-119331735D01*
X218105783Y-119264640D01*
X217944787Y-119271170D01*
X217798467Y-119358238D01*
X217736560Y-119428950D01*
X217700499Y-119519413D01*
X217739102Y-119599923D01*
X217859131Y-119680908D01*
X218067350Y-119772795D01*
X218098946Y-119785486D01*
X218288508Y-119868542D01*
X218451177Y-119950442D01*
X218554672Y-120015134D01*
X218658331Y-120130685D01*
X218727244Y-120315085D01*
X218719927Y-120512971D01*
X218638395Y-120700246D01*
X218484662Y-120852817D01*
X218360183Y-120917763D01*
X218119719Y-120963240D01*
X217986093Y-120957105D01*
X217862391Y-120923934D01*
X217814933Y-120854331D01*
X217832679Y-120739700D01*
X217837841Y-120724543D01*
X217878779Y-120644164D01*
X217946942Y-120613741D01*
X218076798Y-120615777D01*
X218168484Y-120618543D01*
X218275765Y-120594802D01*
X218349268Y-120523820D01*
X218391133Y-120436428D01*
X218395802Y-120344881D01*
X218395587Y-120344346D01*
X218341307Y-120294880D01*
X218225137Y-120222892D01*
X218074830Y-120142436D01*
X217918138Y-120067566D01*
X217782814Y-120012338D01*
X217696613Y-119990805D01*
X217683789Y-120011891D01*
X217667646Y-120111113D01*
X217656590Y-120273146D01*
X217652490Y-120477395D01*
X217651536Y-120618772D01*
X217647042Y-120796824D01*
X217639702Y-120918762D01*
X217630450Y-120963985D01*
X217582090Y-120948787D01*
X217484473Y-120907515D01*
X217360536Y-120851046D01*
X217360536Y-120126555D01*
X217361328Y-119940846D01*
X217368821Y-119658835D01*
X217387911Y-119449616D01*
X217423046Y-119297272D01*
X217478676Y-119185887D01*
X217559250Y-119099543D01*
X217669218Y-119022323D01*
X217809322Y-118958594D01*
X218068011Y-118920307D01*
X218186046Y-118924684D01*
X216107184Y-118966697D02*
X216049024Y-118992116D01*
X216049024Y-118992116D02*
X215910205Y-119102059D01*
X215910205Y-119102059D02*
X215791495Y-119261030D01*
X215791495Y-119261030D02*
X215718079Y-119430677D01*
X215718079Y-119430677D02*
X215706130Y-119514313D01*
X215706130Y-119514313D02*
X215746191Y-119631078D01*
X215746191Y-119631078D02*
X215834065Y-119692862D01*
X215834065Y-119692862D02*
X215928282Y-119730273D01*
X215928282Y-119730273D02*
X215971423Y-119737167D01*
X215971423Y-119737167D02*
X215992429Y-119687138D01*
X215992429Y-119687138D02*
X216033910Y-119578269D01*
X216033910Y-119578269D02*
X216052108Y-119529076D01*
X216052108Y-119529076D02*
X216154152Y-119358913D01*
X216154152Y-119358913D02*
X216301897Y-119274038D01*
X216301897Y-119274038D02*
X216491345Y-119276648D01*
X216491345Y-119276648D02*
X216505377Y-119279991D01*
X216505377Y-119279991D02*
X216606519Y-119327945D01*
X216606519Y-119327945D02*
X216680876Y-119421432D01*
X216680876Y-119421432D02*
X216731662Y-119571939D01*
X216731662Y-119571939D02*
X216762092Y-119790951D01*
X216762092Y-119790951D02*
X216775382Y-120089956D01*
X216775382Y-120089956D02*
X216776628Y-120249056D01*
X216776628Y-120249056D02*
X216777246Y-120499855D01*
X216777246Y-120499855D02*
X216781295Y-120670825D01*
X216781295Y-120670825D02*
X216792067Y-120779454D01*
X216792067Y-120779454D02*
X216812853Y-120843230D01*
X216812853Y-120843230D02*
X216846945Y-120879643D01*
X216846945Y-120879643D02*
X216897635Y-120906179D01*
X216897635Y-120906179D02*
X216900565Y-120907515D01*
X216900565Y-120907515D02*
X216998182Y-120948787D01*
X216998182Y-120948787D02*
X217046542Y-120963985D01*
X217046542Y-120963985D02*
X217053973Y-120918037D01*
X217053973Y-120918037D02*
X217060334Y-120791034D01*
X217060334Y-120791034D02*
X217065168Y-120599235D01*
X217065168Y-120599235D02*
X217068015Y-120358902D01*
X217068015Y-120358902D02*
X217068582Y-120183024D01*
X217068582Y-120183024D02*
X217065687Y-119842688D01*
X217065687Y-119842688D02*
X217054363Y-119584495D01*
X217054363Y-119584495D02*
X217030654Y-119393374D01*
X217030654Y-119393374D02*
X216990603Y-119254253D01*
X216990603Y-119254253D02*
X216930253Y-119152060D01*
X216930253Y-119152060D02*
X216845647Y-119071724D01*
X216845647Y-119071724D02*
X216762101Y-119015655D01*
X216762101Y-119015655D02*
X216561209Y-118941032D01*
X216561209Y-118941032D02*
X216327404Y-118924202D01*
X216327404Y-118924202D02*
X216107184Y-118966697D01*
X216107184Y-118966697D02*
X216107184Y-118966697D01*
G36*
X216561209Y-118941032D02*
G01*
X216762101Y-119015655D01*
X216845647Y-119071724D01*
X216930253Y-119152060D01*
X216990603Y-119254253D01*
X217030654Y-119393374D01*
X217054363Y-119584495D01*
X217065687Y-119842688D01*
X217068582Y-120183024D01*
X217068015Y-120358902D01*
X217065168Y-120599235D01*
X217060334Y-120791034D01*
X217053973Y-120918037D01*
X217046542Y-120963985D01*
X216998182Y-120948787D01*
X216900565Y-120907515D01*
X216897635Y-120906179D01*
X216846945Y-120879643D01*
X216812853Y-120843230D01*
X216792067Y-120779454D01*
X216781295Y-120670825D01*
X216777246Y-120499855D01*
X216776628Y-120249056D01*
X216775382Y-120089956D01*
X216762092Y-119790951D01*
X216731662Y-119571939D01*
X216680876Y-119421432D01*
X216606519Y-119327945D01*
X216505377Y-119279991D01*
X216491345Y-119276648D01*
X216301897Y-119274038D01*
X216154152Y-119358913D01*
X216052108Y-119529076D01*
X216033910Y-119578269D01*
X215992429Y-119687138D01*
X215971423Y-119737167D01*
X215928282Y-119730273D01*
X215834065Y-119692862D01*
X215746191Y-119631078D01*
X215706130Y-119514313D01*
X215718079Y-119430677D01*
X215791495Y-119261030D01*
X215910205Y-119102059D01*
X216049024Y-118992116D01*
X216107184Y-118966697D01*
X216327404Y-118924202D01*
X216561209Y-118941032D01*
G37*
X216561209Y-118941032D02*
X216762101Y-119015655D01*
X216845647Y-119071724D01*
X216930253Y-119152060D01*
X216990603Y-119254253D01*
X217030654Y-119393374D01*
X217054363Y-119584495D01*
X217065687Y-119842688D01*
X217068582Y-120183024D01*
X217068015Y-120358902D01*
X217065168Y-120599235D01*
X217060334Y-120791034D01*
X217053973Y-120918037D01*
X217046542Y-120963985D01*
X216998182Y-120948787D01*
X216900565Y-120907515D01*
X216897635Y-120906179D01*
X216846945Y-120879643D01*
X216812853Y-120843230D01*
X216792067Y-120779454D01*
X216781295Y-120670825D01*
X216777246Y-120499855D01*
X216776628Y-120249056D01*
X216775382Y-120089956D01*
X216762092Y-119790951D01*
X216731662Y-119571939D01*
X216680876Y-119421432D01*
X216606519Y-119327945D01*
X216505377Y-119279991D01*
X216491345Y-119276648D01*
X216301897Y-119274038D01*
X216154152Y-119358913D01*
X216052108Y-119529076D01*
X216033910Y-119578269D01*
X215992429Y-119687138D01*
X215971423Y-119737167D01*
X215928282Y-119730273D01*
X215834065Y-119692862D01*
X215746191Y-119631078D01*
X215706130Y-119514313D01*
X215718079Y-119430677D01*
X215791495Y-119261030D01*
X215910205Y-119102059D01*
X216049024Y-118992116D01*
X216107184Y-118966697D01*
X216327404Y-118924202D01*
X216561209Y-118941032D01*
X214427601Y-118994233D02*
X214235083Y-119120057D01*
X214235083Y-119120057D02*
X214142226Y-119232696D01*
X214142226Y-119232696D02*
X214068660Y-119437092D01*
X214068660Y-119437092D02*
X214062817Y-119598830D01*
X214062817Y-119598830D02*
X214076053Y-119815094D01*
X214076053Y-119815094D02*
X214574808Y-120033398D01*
X214574808Y-120033398D02*
X214817315Y-120144930D01*
X214817315Y-120144930D02*
X214975771Y-120234650D01*
X214975771Y-120234650D02*
X215058164Y-120312361D01*
X215058164Y-120312361D02*
X215072482Y-120387867D01*
X215072482Y-120387867D02*
X215026713Y-120470971D01*
X215026713Y-120470971D02*
X214976245Y-120526054D01*
X214976245Y-120526054D02*
X214829395Y-120614389D01*
X214829395Y-120614389D02*
X214669672Y-120620579D01*
X214669672Y-120620579D02*
X214522980Y-120551735D01*
X214522980Y-120551735D02*
X214415219Y-120414972D01*
X214415219Y-120414972D02*
X214395945Y-120366680D01*
X214395945Y-120366680D02*
X214303624Y-120215848D01*
X214303624Y-120215848D02*
X214197412Y-120151567D01*
X214197412Y-120151567D02*
X214051724Y-120096576D01*
X214051724Y-120096576D02*
X214051724Y-120305057D01*
X214051724Y-120305057D02*
X214064604Y-120446926D01*
X214064604Y-120446926D02*
X214115057Y-120566563D01*
X214115057Y-120566563D02*
X214220803Y-120703927D01*
X214220803Y-120703927D02*
X214236520Y-120721777D01*
X214236520Y-120721777D02*
X214354145Y-120843986D01*
X214354145Y-120843986D02*
X214455254Y-120909570D01*
X214455254Y-120909570D02*
X214581750Y-120939742D01*
X214581750Y-120939742D02*
X214686616Y-120949623D01*
X214686616Y-120949623D02*
X214874189Y-120952085D01*
X214874189Y-120952085D02*
X215007716Y-120920892D01*
X215007716Y-120920892D02*
X215091017Y-120874579D01*
X215091017Y-120874579D02*
X215221937Y-120772735D01*
X215221937Y-120772735D02*
X215312561Y-120662591D01*
X215312561Y-120662591D02*
X215369913Y-120524069D01*
X215369913Y-120524069D02*
X215401020Y-120337090D01*
X215401020Y-120337090D02*
X215412906Y-120081577D01*
X215412906Y-120081577D02*
X215413855Y-119951894D01*
X215413855Y-119951894D02*
X215410629Y-119796421D01*
X215410629Y-119796421D02*
X215116834Y-119796421D01*
X215116834Y-119796421D02*
X215113427Y-119879827D01*
X215113427Y-119879827D02*
X215104934Y-119893487D01*
X215104934Y-119893487D02*
X215048890Y-119874931D01*
X215048890Y-119874931D02*
X214928282Y-119825822D01*
X214928282Y-119825822D02*
X214767087Y-119756002D01*
X214767087Y-119756002D02*
X214733378Y-119740995D01*
X214733378Y-119740995D02*
X214529661Y-119637404D01*
X214529661Y-119637404D02*
X214417421Y-119546359D01*
X214417421Y-119546359D02*
X214392753Y-119461081D01*
X214392753Y-119461081D02*
X214451755Y-119374794D01*
X214451755Y-119374794D02*
X214500482Y-119336667D01*
X214500482Y-119336667D02*
X214676306Y-119260417D01*
X214676306Y-119260417D02*
X214840873Y-119273014D01*
X214840873Y-119273014D02*
X214978646Y-119366086D01*
X214978646Y-119366086D02*
X215074087Y-119531256D01*
X215074087Y-119531256D02*
X215104686Y-119662357D01*
X215104686Y-119662357D02*
X215116834Y-119796421D01*
X215116834Y-119796421D02*
X215410629Y-119796421D01*
X215410629Y-119796421D02*
X215407568Y-119648919D01*
X215407568Y-119648919D02*
X215384401Y-119424756D01*
X215384401Y-119424756D02*
X215338510Y-119261526D01*
X215338510Y-119261526D02*
X215264046Y-119141352D01*
X215264046Y-119141352D02*
X215155164Y-119046355D01*
X215155164Y-119046355D02*
X215107695Y-119015655D01*
X215107695Y-119015655D02*
X214892062Y-118935703D01*
X214892062Y-118935703D02*
X214655979Y-118930672D01*
X214655979Y-118930672D02*
X214427601Y-118994233D01*
X214427601Y-118994233D02*
X214427601Y-118994233D01*
G36*
X215412906Y-120081577D02*
G01*
X215401020Y-120337090D01*
X215369913Y-120524069D01*
X215312561Y-120662591D01*
X215221937Y-120772735D01*
X215091017Y-120874579D01*
X215007716Y-120920892D01*
X214874189Y-120952085D01*
X214686616Y-120949623D01*
X214581750Y-120939742D01*
X214455254Y-120909570D01*
X214354145Y-120843986D01*
X214236520Y-120721777D01*
X214220803Y-120703927D01*
X214115057Y-120566563D01*
X214064604Y-120446926D01*
X214051724Y-120305057D01*
X214051724Y-120096576D01*
X214197412Y-120151567D01*
X214303624Y-120215848D01*
X214395945Y-120366680D01*
X214415219Y-120414972D01*
X214522980Y-120551735D01*
X214669672Y-120620579D01*
X214829395Y-120614389D01*
X214976245Y-120526054D01*
X215026713Y-120470971D01*
X215072482Y-120387867D01*
X215058164Y-120312361D01*
X214975771Y-120234650D01*
X214817315Y-120144930D01*
X214574808Y-120033398D01*
X214076053Y-119815094D01*
X214062817Y-119598830D01*
X214067793Y-119461081D01*
X214392753Y-119461081D01*
X214417421Y-119546359D01*
X214529661Y-119637404D01*
X214733378Y-119740995D01*
X214767087Y-119756002D01*
X214928282Y-119825822D01*
X215048890Y-119874931D01*
X215104934Y-119893487D01*
X215113427Y-119879827D01*
X215116834Y-119796421D01*
X215104686Y-119662357D01*
X215074087Y-119531256D01*
X214978646Y-119366086D01*
X214840873Y-119273014D01*
X214676306Y-119260417D01*
X214500482Y-119336667D01*
X214451755Y-119374794D01*
X214392753Y-119461081D01*
X214067793Y-119461081D01*
X214068660Y-119437092D01*
X214142226Y-119232696D01*
X214235083Y-119120057D01*
X214427601Y-118994233D01*
X214655979Y-118930672D01*
X214892062Y-118935703D01*
X215107695Y-119015655D01*
X215155164Y-119046355D01*
X215264046Y-119141352D01*
X215338510Y-119261526D01*
X215384401Y-119424756D01*
X215407568Y-119648919D01*
X215410629Y-119796421D01*
X215413855Y-119951894D01*
X215412906Y-120081577D01*
G37*
X215412906Y-120081577D02*
X215401020Y-120337090D01*
X215369913Y-120524069D01*
X215312561Y-120662591D01*
X215221937Y-120772735D01*
X215091017Y-120874579D01*
X215007716Y-120920892D01*
X214874189Y-120952085D01*
X214686616Y-120949623D01*
X214581750Y-120939742D01*
X214455254Y-120909570D01*
X214354145Y-120843986D01*
X214236520Y-120721777D01*
X214220803Y-120703927D01*
X214115057Y-120566563D01*
X214064604Y-120446926D01*
X214051724Y-120305057D01*
X214051724Y-120096576D01*
X214197412Y-120151567D01*
X214303624Y-120215848D01*
X214395945Y-120366680D01*
X214415219Y-120414972D01*
X214522980Y-120551735D01*
X214669672Y-120620579D01*
X214829395Y-120614389D01*
X214976245Y-120526054D01*
X215026713Y-120470971D01*
X215072482Y-120387867D01*
X215058164Y-120312361D01*
X214975771Y-120234650D01*
X214817315Y-120144930D01*
X214574808Y-120033398D01*
X214076053Y-119815094D01*
X214062817Y-119598830D01*
X214067793Y-119461081D01*
X214392753Y-119461081D01*
X214417421Y-119546359D01*
X214529661Y-119637404D01*
X214733378Y-119740995D01*
X214767087Y-119756002D01*
X214928282Y-119825822D01*
X215048890Y-119874931D01*
X215104934Y-119893487D01*
X215113427Y-119879827D01*
X215116834Y-119796421D01*
X215104686Y-119662357D01*
X215074087Y-119531256D01*
X214978646Y-119366086D01*
X214840873Y-119273014D01*
X214676306Y-119260417D01*
X214500482Y-119336667D01*
X214451755Y-119374794D01*
X214392753Y-119461081D01*
X214067793Y-119461081D01*
X214068660Y-119437092D01*
X214142226Y-119232696D01*
X214235083Y-119120057D01*
X214427601Y-118994233D01*
X214655979Y-118930672D01*
X214892062Y-118935703D01*
X215107695Y-119015655D01*
X215155164Y-119046355D01*
X215264046Y-119141352D01*
X215338510Y-119261526D01*
X215384401Y-119424756D01*
X215407568Y-119648919D01*
X215410629Y-119796421D01*
X215413855Y-119951894D01*
X215412906Y-120081577D01*
X224651643Y-103154997D02*
X224388323Y-103156439D01*
X224388323Y-103156439D02*
X224197754Y-103160342D01*
X224197754Y-103160342D02*
X224067655Y-103167937D01*
X224067655Y-103167937D02*
X223985743Y-103180450D01*
X223985743Y-103180450D02*
X223939734Y-103199111D01*
X223939734Y-103199111D02*
X223917347Y-103225148D01*
X223917347Y-103225148D02*
X223906298Y-103259788D01*
X223906298Y-103259788D02*
X223905224Y-103264272D01*
X223905224Y-103264272D02*
X223888441Y-103345189D01*
X223888441Y-103345189D02*
X223857375Y-103504842D01*
X223857375Y-103504842D02*
X223815258Y-103726238D01*
X223815258Y-103726238D02*
X223765321Y-103992385D01*
X223765321Y-103992385D02*
X223710797Y-104286290D01*
X223710797Y-104286290D02*
X223708893Y-104296612D01*
X223708893Y-104296612D02*
X223654277Y-104584636D01*
X223654277Y-104584636D02*
X223603178Y-104839115D01*
X223603178Y-104839115D02*
X223558894Y-105044785D01*
X223558894Y-105044785D02*
X223524721Y-105186385D01*
X223524721Y-105186385D02*
X223503957Y-105248650D01*
X223503957Y-105248650D02*
X223502967Y-105249753D01*
X223502967Y-105249753D02*
X223441801Y-105280159D01*
X223441801Y-105280159D02*
X223315690Y-105330828D01*
X223315690Y-105330828D02*
X223151869Y-105390822D01*
X223151869Y-105390822D02*
X223150957Y-105391142D01*
X223150957Y-105391142D02*
X222944612Y-105468704D01*
X222944612Y-105468704D02*
X222701340Y-105567507D01*
X222701340Y-105567507D02*
X222472031Y-105666848D01*
X222472031Y-105666848D02*
X222461178Y-105671760D01*
X222461178Y-105671760D02*
X222087683Y-105841276D01*
X222087683Y-105841276D02*
X221260635Y-105276495D01*
X221260635Y-105276495D02*
X221006923Y-105104320D01*
X221006923Y-105104320D02*
X220777098Y-104950395D01*
X220777098Y-104950395D02*
X220584475Y-104823474D01*
X220584475Y-104823474D02*
X220442368Y-104732309D01*
X220442368Y-104732309D02*
X220364093Y-104685655D01*
X220364093Y-104685655D02*
X220356660Y-104682195D01*
X220356660Y-104682195D02*
X220299776Y-104697600D01*
X220299776Y-104697600D02*
X220193531Y-104771927D01*
X220193531Y-104771927D02*
X220033781Y-104908681D01*
X220033781Y-104908681D02*
X219816384Y-105111368D01*
X219816384Y-105111368D02*
X219594452Y-105327008D01*
X219594452Y-105327008D02*
X219380509Y-105539503D01*
X219380509Y-105539503D02*
X219189031Y-105733410D01*
X219189031Y-105733410D02*
X219031545Y-105896754D01*
X219031545Y-105896754D02*
X218919578Y-106017561D01*
X218919578Y-106017561D02*
X218864657Y-106083855D01*
X218864657Y-106083855D02*
X218862614Y-106087268D01*
X218862614Y-106087268D02*
X218856542Y-106132761D01*
X218856542Y-106132761D02*
X218879416Y-106207056D01*
X218879416Y-106207056D02*
X218936885Y-106320186D01*
X218936885Y-106320186D02*
X219034601Y-106482185D01*
X219034601Y-106482185D02*
X219178216Y-106703086D01*
X219178216Y-106703086D02*
X219369667Y-106987460D01*
X219369667Y-106987460D02*
X219539577Y-107237759D01*
X219539577Y-107237759D02*
X219691462Y-107462250D01*
X219691462Y-107462250D02*
X219816545Y-107647900D01*
X219816545Y-107647900D02*
X219906051Y-107781675D01*
X219906051Y-107781675D02*
X219951200Y-107850542D01*
X219951200Y-107850542D02*
X219954042Y-107855218D01*
X219954042Y-107855218D02*
X219948530Y-107921201D01*
X219948530Y-107921201D02*
X219906745Y-108049448D01*
X219906745Y-108049448D02*
X219837003Y-108215720D01*
X219837003Y-108215720D02*
X219812146Y-108268819D01*
X219812146Y-108268819D02*
X219703689Y-108505377D01*
X219703689Y-108505377D02*
X219587980Y-108773789D01*
X219587980Y-108773789D02*
X219493985Y-109006035D01*
X219493985Y-109006035D02*
X219426255Y-109178407D01*
X219426255Y-109178407D02*
X219372457Y-109309403D01*
X219372457Y-109309403D02*
X219341369Y-109377867D01*
X219341369Y-109377867D02*
X219337504Y-109383142D01*
X219337504Y-109383142D02*
X219280329Y-109391880D01*
X219280329Y-109391880D02*
X219145552Y-109415823D01*
X219145552Y-109415823D02*
X218951094Y-109451562D01*
X218951094Y-109451562D02*
X218714875Y-109495689D01*
X218714875Y-109495689D02*
X218454816Y-109544795D01*
X218454816Y-109544795D02*
X218188837Y-109595472D01*
X218188837Y-109595472D02*
X217934857Y-109644313D01*
X217934857Y-109644313D02*
X217710799Y-109687909D01*
X217710799Y-109687909D02*
X217534580Y-109722851D01*
X217534580Y-109722851D02*
X217424123Y-109745732D01*
X217424123Y-109745732D02*
X217397030Y-109752201D01*
X217397030Y-109752201D02*
X217369044Y-109768167D01*
X217369044Y-109768167D02*
X217347919Y-109804227D01*
X217347919Y-109804227D02*
X217332703Y-109872552D01*
X217332703Y-109872552D02*
X217322447Y-109985315D01*
X217322447Y-109985315D02*
X217316200Y-110154686D01*
X217316200Y-110154686D02*
X217313012Y-110392838D01*
X217313012Y-110392838D02*
X217311933Y-110711942D01*
X217311933Y-110711942D02*
X217311877Y-110842741D01*
X217311877Y-110842741D02*
X217311877Y-111906511D01*
X217311877Y-111906511D02*
X217567337Y-111956933D01*
X217567337Y-111956933D02*
X217709463Y-111984273D01*
X217709463Y-111984273D02*
X217921550Y-112024182D01*
X217921550Y-112024182D02*
X218177807Y-112071845D01*
X218177807Y-112071845D02*
X218452442Y-112122446D01*
X218452442Y-112122446D02*
X218528352Y-112136344D01*
X218528352Y-112136344D02*
X218781779Y-112185617D01*
X218781779Y-112185617D02*
X219002553Y-112234070D01*
X219002553Y-112234070D02*
X219172143Y-112277215D01*
X219172143Y-112277215D02*
X219272020Y-112310563D01*
X219272020Y-112310563D02*
X219288657Y-112320502D01*
X219288657Y-112320502D02*
X219329511Y-112390891D01*
X219329511Y-112390891D02*
X219388087Y-112527283D01*
X219388087Y-112527283D02*
X219453045Y-112702805D01*
X219453045Y-112702805D02*
X219465929Y-112740613D01*
X219465929Y-112740613D02*
X219551066Y-112975030D01*
X219551066Y-112975030D02*
X219656744Y-113239524D01*
X219656744Y-113239524D02*
X219760160Y-113477041D01*
X219760160Y-113477041D02*
X219760670Y-113478144D01*
X219760670Y-113478144D02*
X219932888Y-113850733D01*
X219932888Y-113850733D02*
X219366476Y-114683893D01*
X219366476Y-114683893D02*
X218800065Y-115517053D01*
X218800065Y-115517053D02*
X219527298Y-116245500D01*
X219527298Y-116245500D02*
X219747252Y-116462302D01*
X219747252Y-116462302D02*
X219947868Y-116653414D01*
X219947868Y-116653414D02*
X220117878Y-116808636D01*
X220117878Y-116808636D02*
X220246015Y-116917764D01*
X220246015Y-116917764D02*
X220321011Y-116970595D01*
X220321011Y-116970595D02*
X220331769Y-116973947D01*
X220331769Y-116973947D02*
X220394933Y-116947549D01*
X220394933Y-116947549D02*
X220523820Y-116874160D01*
X220523820Y-116874160D02*
X220704351Y-116762484D01*
X220704351Y-116762484D02*
X220922446Y-116621224D01*
X220922446Y-116621224D02*
X221158246Y-116463027D01*
X221158246Y-116463027D02*
X221397564Y-116301664D01*
X221397564Y-116301664D02*
X221610941Y-116161252D01*
X221610941Y-116161252D02*
X221784825Y-116050431D01*
X221784825Y-116050431D02*
X221905666Y-115977838D01*
X221905666Y-115977838D02*
X221959737Y-115952108D01*
X221959737Y-115952108D02*
X222025706Y-115973880D01*
X222025706Y-115973880D02*
X222150802Y-116031251D01*
X222150802Y-116031251D02*
X222309220Y-116112300D01*
X222309220Y-116112300D02*
X222326013Y-116121309D01*
X222326013Y-116121309D02*
X222539348Y-116228300D01*
X222539348Y-116228300D02*
X222685636Y-116280772D01*
X222685636Y-116280772D02*
X222776620Y-116281330D01*
X222776620Y-116281330D02*
X222824041Y-116232580D01*
X222824041Y-116232580D02*
X222824317Y-116231897D01*
X222824317Y-116231897D02*
X222848020Y-116174164D01*
X222848020Y-116174164D02*
X222904551Y-116037115D01*
X222904551Y-116037115D02*
X222989526Y-115831357D01*
X222989526Y-115831357D02*
X223098562Y-115567498D01*
X223098562Y-115567498D02*
X223227276Y-115256144D01*
X223227276Y-115256144D02*
X223371285Y-114907904D01*
X223371285Y-114907904D02*
X223510749Y-114570744D01*
X223510749Y-114570744D02*
X223664020Y-114198666D01*
X223664020Y-114198666D02*
X223804749Y-113853987D01*
X223804749Y-113853987D02*
X223928718Y-113547271D01*
X223928718Y-113547271D02*
X224031709Y-113289085D01*
X224031709Y-113289085D02*
X224109504Y-113089994D01*
X224109504Y-113089994D02*
X224157886Y-112960565D01*
X224157886Y-112960565D02*
X224172796Y-112912261D01*
X224172796Y-112912261D02*
X224135406Y-112856850D01*
X224135406Y-112856850D02*
X224037602Y-112768538D01*
X224037602Y-112768538D02*
X223907185Y-112671174D01*
X223907185Y-112671174D02*
X223535777Y-112363253D01*
X223535777Y-112363253D02*
X223245470Y-112010304D01*
X223245470Y-112010304D02*
X223039744Y-111619761D01*
X223039744Y-111619761D02*
X222922077Y-111199057D01*
X222922077Y-111199057D02*
X222895949Y-110755629D01*
X222895949Y-110755629D02*
X222914940Y-110550958D01*
X222914940Y-110550958D02*
X223018417Y-110126323D01*
X223018417Y-110126323D02*
X223196627Y-109751336D01*
X223196627Y-109751336D02*
X223438518Y-109429696D01*
X223438518Y-109429696D02*
X223733037Y-109165101D01*
X223733037Y-109165101D02*
X224069129Y-108961250D01*
X224069129Y-108961250D02*
X224435742Y-108821842D01*
X224435742Y-108821842D02*
X224821823Y-108750574D01*
X224821823Y-108750574D02*
X225216319Y-108751145D01*
X225216319Y-108751145D02*
X225608175Y-108827254D01*
X225608175Y-108827254D02*
X225986340Y-108982599D01*
X225986340Y-108982599D02*
X226339760Y-109220879D01*
X226339760Y-109220879D02*
X226487273Y-109355639D01*
X226487273Y-109355639D02*
X226770184Y-109701679D01*
X226770184Y-109701679D02*
X226967168Y-110079826D01*
X226967168Y-110079826D02*
X227079536Y-110479055D01*
X227079536Y-110479055D02*
X227108599Y-110888345D01*
X227108599Y-110888345D02*
X227055669Y-111296672D01*
X227055669Y-111296672D02*
X226922057Y-111693013D01*
X226922057Y-111693013D02*
X226709075Y-112066345D01*
X226709075Y-112066345D02*
X226418034Y-112405645D01*
X226418034Y-112405645D02*
X226092814Y-112671174D01*
X226092814Y-112671174D02*
X225957348Y-112772671D01*
X225957348Y-112772671D02*
X225861651Y-112860025D01*
X225861651Y-112860025D02*
X225827203Y-112912343D01*
X225827203Y-112912343D02*
X225845240Y-112969398D01*
X225845240Y-112969398D02*
X225896538Y-113105698D01*
X225896538Y-113105698D02*
X225976876Y-113310678D01*
X225976876Y-113310678D02*
X226082036Y-113573772D01*
X226082036Y-113573772D02*
X226207796Y-113884416D01*
X226207796Y-113884416D02*
X226349937Y-114232043D01*
X226349937Y-114232043D02*
X226489635Y-114570826D01*
X226489635Y-114570826D02*
X226643759Y-114943222D01*
X226643759Y-114943222D02*
X226786518Y-115288307D01*
X226786518Y-115288307D02*
X226913529Y-115595477D01*
X226913529Y-115595477D02*
X227020411Y-115854125D01*
X227020411Y-115854125D02*
X227102780Y-116053647D01*
X227102780Y-116053647D02*
X227156253Y-116183435D01*
X227156253Y-116183435D02*
X227176067Y-116231897D01*
X227176067Y-116231897D02*
X227222876Y-116281129D01*
X227222876Y-116281129D02*
X227313417Y-116280985D01*
X227313417Y-116280985D02*
X227459342Y-116228877D01*
X227459342Y-116228877D02*
X227672302Y-116122216D01*
X227672302Y-116122216D02*
X227673986Y-116121309D01*
X227673986Y-116121309D02*
X227834330Y-116038536D01*
X227834330Y-116038536D02*
X227963948Y-115978242D01*
X227963948Y-115978242D02*
X228037037Y-115952346D01*
X228037037Y-115952346D02*
X228040263Y-115952108D01*
X228040263Y-115952108D02*
X228095284Y-115978374D01*
X228095284Y-115978374D02*
X228216757Y-116051416D01*
X228216757Y-116051416D02*
X228391129Y-116162595D01*
X228391129Y-116162595D02*
X228604850Y-116303273D01*
X228604850Y-116303273D02*
X228841753Y-116463027D01*
X228841753Y-116463027D02*
X229082945Y-116624779D01*
X229082945Y-116624779D02*
X229300326Y-116765450D01*
X229300326Y-116765450D02*
X229479816Y-116876335D01*
X229479816Y-116876335D02*
X229607336Y-116948730D01*
X229607336Y-116948730D02*
X229668230Y-116973947D01*
X229668230Y-116973947D02*
X229724303Y-116940803D01*
X229724303Y-116940803D02*
X229837040Y-116848173D01*
X229837040Y-116848173D02*
X229995177Y-116706257D01*
X229995177Y-116706257D02*
X230187449Y-116525255D01*
X230187449Y-116525255D02*
X230402591Y-116315369D01*
X230402591Y-116315369D02*
X230472952Y-116245249D01*
X230472952Y-116245249D02*
X231200434Y-115516552D01*
X231200434Y-115516552D02*
X230646705Y-114703900D01*
X230646705Y-114703900D02*
X230478423Y-114454342D01*
X230478423Y-114454342D02*
X230330729Y-114230366D01*
X230330729Y-114230366D02*
X230211910Y-114044949D01*
X230211910Y-114044949D02*
X230130250Y-113911065D01*
X230130250Y-113911065D02*
X230094036Y-113841690D01*
X230094036Y-113841690D02*
X230092975Y-113836755D01*
X230092975Y-113836755D02*
X230112067Y-113771364D01*
X230112067Y-113771364D02*
X230163418Y-113639825D01*
X230163418Y-113639825D02*
X230238140Y-113464181D01*
X230238140Y-113464181D02*
X230290588Y-113346591D01*
X230290588Y-113346591D02*
X230388654Y-113121461D01*
X230388654Y-113121461D02*
X230481007Y-112894015D01*
X230481007Y-112894015D02*
X230552606Y-112701839D01*
X230552606Y-112701839D02*
X230572056Y-112643295D01*
X230572056Y-112643295D02*
X230627314Y-112486956D01*
X230627314Y-112486956D02*
X230681331Y-112366158D01*
X230681331Y-112366158D02*
X230711001Y-112320502D01*
X230711001Y-112320502D02*
X230776476Y-112292561D01*
X230776476Y-112292561D02*
X230919376Y-112252951D01*
X230919376Y-112252951D02*
X231121161Y-112206162D01*
X231121161Y-112206162D02*
X231363288Y-112156683D01*
X231363288Y-112156683D02*
X231471647Y-112136344D01*
X231471647Y-112136344D02*
X231746811Y-112085781D01*
X231746811Y-112085781D02*
X232010746Y-112036822D01*
X232010746Y-112036822D02*
X232237659Y-111994281D01*
X232237659Y-111994281D02*
X232401761Y-111962975D01*
X232401761Y-111962975D02*
X232432662Y-111956933D01*
X232432662Y-111956933D02*
X232688122Y-111906511D01*
X232688122Y-111906511D02*
X232688122Y-110842741D01*
X232688122Y-110842741D02*
X232687548Y-110492950D01*
X232687548Y-110492950D02*
X232685193Y-110228300D01*
X232685193Y-110228300D02*
X232680107Y-110036622D01*
X232680107Y-110036622D02*
X232671339Y-109905744D01*
X232671339Y-109905744D02*
X232657938Y-109823493D01*
X232657938Y-109823493D02*
X232638954Y-109777698D01*
X232638954Y-109777698D02*
X232613438Y-109756188D01*
X232613438Y-109756188D02*
X232602969Y-109752201D01*
X232602969Y-109752201D02*
X232539826Y-109738056D01*
X232539826Y-109738056D02*
X232400325Y-109709834D01*
X232400325Y-109709834D02*
X232202389Y-109670943D01*
X232202389Y-109670943D02*
X231963935Y-109624792D01*
X231963935Y-109624792D02*
X231702886Y-109574788D01*
X231702886Y-109574788D02*
X231437161Y-109524341D01*
X231437161Y-109524341D02*
X231184681Y-109476858D01*
X231184681Y-109476858D02*
X230963365Y-109435748D01*
X230963365Y-109435748D02*
X230791134Y-109404419D01*
X230791134Y-109404419D02*
X230685908Y-109386278D01*
X230685908Y-109386278D02*
X230662495Y-109383142D01*
X230662495Y-109383142D02*
X230641284Y-109341173D01*
X230641284Y-109341173D02*
X230594332Y-109229370D01*
X230594332Y-109229370D02*
X230530419Y-109068888D01*
X230530419Y-109068888D02*
X230506014Y-109006035D01*
X230506014Y-109006035D02*
X230407580Y-108763203D01*
X230407580Y-108763203D02*
X230291666Y-108494918D01*
X230291666Y-108494918D02*
X230187853Y-108268819D01*
X230187853Y-108268819D02*
X230111465Y-108095935D01*
X230111465Y-108095935D02*
X230060644Y-107953877D01*
X230060644Y-107953877D02*
X230043679Y-107866878D01*
X230043679Y-107866878D02*
X230046384Y-107855218D01*
X230046384Y-107855218D02*
X230082239Y-107800170D01*
X230082239Y-107800170D02*
X230164108Y-107677739D01*
X230164108Y-107677739D02*
X230283205Y-107500962D01*
X230283205Y-107500962D02*
X230430742Y-107282877D01*
X230430742Y-107282877D02*
X230597931Y-107036520D01*
X230597931Y-107036520D02*
X230630990Y-106987891D01*
X230630990Y-106987891D02*
X230824980Y-106699773D01*
X230824980Y-106699773D02*
X230967579Y-106480377D01*
X230967579Y-106480377D02*
X231064473Y-106319602D01*
X231064473Y-106319602D02*
X231121346Y-106207346D01*
X231121346Y-106207346D02*
X231143884Y-106133510D01*
X231143884Y-106133510D02*
X231137772Y-106087990D01*
X231137772Y-106087990D02*
X231137616Y-106087700D01*
X231137616Y-106087700D02*
X231089511Y-106027910D01*
X231089511Y-106027910D02*
X230983111Y-105912319D01*
X230983111Y-105912319D02*
X230829948Y-105752909D01*
X230829948Y-105752909D02*
X230641555Y-105561665D01*
X230641555Y-105561665D02*
X230429465Y-105350568D01*
X230429465Y-105350568D02*
X230405547Y-105327008D01*
X230405547Y-105327008D02*
X230138262Y-105068172D01*
X230138262Y-105068172D02*
X229931992Y-104878117D01*
X229931992Y-104878117D02*
X229782592Y-104753337D01*
X229782592Y-104753337D02*
X229685920Y-104690327D01*
X229685920Y-104690327D02*
X229643339Y-104682195D01*
X229643339Y-104682195D02*
X229581196Y-104717672D01*
X229581196Y-104717672D02*
X229452237Y-104799623D01*
X229452237Y-104799623D02*
X229269778Y-104919292D01*
X229269778Y-104919292D02*
X229047133Y-105067926D01*
X229047133Y-105067926D02*
X228797616Y-105236772D01*
X228797616Y-105236772D02*
X228739364Y-105276495D01*
X228739364Y-105276495D02*
X227912316Y-105841276D01*
X227912316Y-105841276D02*
X227538821Y-105671760D01*
X227538821Y-105671760D02*
X227311684Y-105572971D01*
X227311684Y-105572971D02*
X227067872Y-105473617D01*
X227067872Y-105473617D02*
X226858275Y-105394401D01*
X226858275Y-105394401D02*
X226849042Y-105391142D01*
X226849042Y-105391142D02*
X226685095Y-105331129D01*
X226685095Y-105331129D02*
X226558715Y-105280382D01*
X226558715Y-105280382D02*
X226497137Y-105249841D01*
X226497137Y-105249841D02*
X226497032Y-105249753D01*
X226497032Y-105249753D02*
X226477493Y-105194548D01*
X226477493Y-105194548D02*
X226444279Y-105058779D01*
X226444279Y-105058779D02*
X226400687Y-104857709D01*
X226400687Y-104857709D02*
X226350016Y-104606599D01*
X226350016Y-104606599D02*
X226295561Y-104320713D01*
X226295561Y-104320713D02*
X226291106Y-104296612D01*
X226291106Y-104296612D02*
X226236482Y-104002059D01*
X226236482Y-104002059D02*
X226186336Y-103734684D01*
X226186336Y-103734684D02*
X226143898Y-103511480D01*
X226143898Y-103511480D02*
X226112402Y-103349439D01*
X226112402Y-103349439D02*
X226095077Y-103265553D01*
X226095077Y-103265553D02*
X226094775Y-103264272D01*
X226094775Y-103264272D02*
X226084232Y-103228588D01*
X226084232Y-103228588D02*
X226063731Y-103201646D01*
X226063731Y-103201646D02*
X226020989Y-103182218D01*
X226020989Y-103182218D02*
X225943724Y-103169075D01*
X225943724Y-103169075D02*
X225819652Y-103160989D01*
X225819652Y-103160989D02*
X225636491Y-103156732D01*
X225636491Y-103156732D02*
X225381958Y-103155075D01*
X225381958Y-103155075D02*
X225043769Y-103154790D01*
X225043769Y-103154790D02*
X225000000Y-103154790D01*
X225000000Y-103154790D02*
X224651643Y-103154997D01*
X224651643Y-103154997D02*
X224651643Y-103154997D01*
G36*
X225381958Y-103155075D02*
G01*
X225636491Y-103156732D01*
X225819652Y-103160989D01*
X225943724Y-103169075D01*
X226020989Y-103182218D01*
X226063731Y-103201646D01*
X226084232Y-103228588D01*
X226094775Y-103264272D01*
X226095077Y-103265553D01*
X226112402Y-103349439D01*
X226143898Y-103511480D01*
X226186336Y-103734684D01*
X226236482Y-104002059D01*
X226291106Y-104296612D01*
X226295561Y-104320713D01*
X226350016Y-104606599D01*
X226400687Y-104857709D01*
X226444279Y-105058779D01*
X226477493Y-105194548D01*
X226497032Y-105249753D01*
X226497137Y-105249841D01*
X226558715Y-105280382D01*
X226685095Y-105331129D01*
X226849042Y-105391142D01*
X226858275Y-105394401D01*
X227067872Y-105473617D01*
X227311684Y-105572971D01*
X227538821Y-105671760D01*
X227912316Y-105841276D01*
X228739364Y-105276495D01*
X228797616Y-105236772D01*
X229047133Y-105067926D01*
X229269778Y-104919292D01*
X229452237Y-104799623D01*
X229581196Y-104717672D01*
X229643339Y-104682195D01*
X229685920Y-104690327D01*
X229782592Y-104753337D01*
X229931992Y-104878117D01*
X230138262Y-105068172D01*
X230405547Y-105327008D01*
X230429465Y-105350568D01*
X230641555Y-105561665D01*
X230829948Y-105752909D01*
X230983111Y-105912319D01*
X231089511Y-106027910D01*
X231137616Y-106087700D01*
X231137772Y-106087990D01*
X231143884Y-106133510D01*
X231121346Y-106207346D01*
X231064473Y-106319602D01*
X230967579Y-106480377D01*
X230824980Y-106699773D01*
X230630990Y-106987891D01*
X230597931Y-107036520D01*
X230430742Y-107282877D01*
X230283205Y-107500962D01*
X230164108Y-107677739D01*
X230082239Y-107800170D01*
X230046384Y-107855218D01*
X230043679Y-107866878D01*
X230060644Y-107953877D01*
X230111465Y-108095935D01*
X230187853Y-108268819D01*
X230291666Y-108494918D01*
X230407580Y-108763203D01*
X230506014Y-109006035D01*
X230530419Y-109068888D01*
X230594332Y-109229370D01*
X230641284Y-109341173D01*
X230662495Y-109383142D01*
X230685908Y-109386278D01*
X230791134Y-109404419D01*
X230963365Y-109435748D01*
X231184681Y-109476858D01*
X231437161Y-109524341D01*
X231702886Y-109574788D01*
X231963935Y-109624792D01*
X232202389Y-109670943D01*
X232400325Y-109709834D01*
X232539826Y-109738056D01*
X232602969Y-109752201D01*
X232613438Y-109756188D01*
X232638954Y-109777698D01*
X232657938Y-109823493D01*
X232671339Y-109905744D01*
X232680107Y-110036622D01*
X232685193Y-110228300D01*
X232687548Y-110492950D01*
X232688122Y-110842741D01*
X232688122Y-111906511D01*
X232432662Y-111956933D01*
X232401761Y-111962975D01*
X232237659Y-111994281D01*
X232010746Y-112036822D01*
X231746811Y-112085781D01*
X231471647Y-112136344D01*
X231363288Y-112156683D01*
X231121161Y-112206162D01*
X230919376Y-112252951D01*
X230776476Y-112292561D01*
X230711001Y-112320502D01*
X230681331Y-112366158D01*
X230627314Y-112486956D01*
X230572056Y-112643295D01*
X230552606Y-112701839D01*
X230481007Y-112894015D01*
X230388654Y-113121461D01*
X230290588Y-113346591D01*
X230238140Y-113464181D01*
X230163418Y-113639825D01*
X230112067Y-113771364D01*
X230092975Y-113836755D01*
X230094036Y-113841690D01*
X230130250Y-113911065D01*
X230211910Y-114044949D01*
X230330729Y-114230366D01*
X230478423Y-114454342D01*
X230646705Y-114703900D01*
X231200434Y-115516552D01*
X230472952Y-116245249D01*
X230402591Y-116315369D01*
X230187449Y-116525255D01*
X229995177Y-116706257D01*
X229837040Y-116848173D01*
X229724303Y-116940803D01*
X229668230Y-116973947D01*
X229607336Y-116948730D01*
X229479816Y-116876335D01*
X229300326Y-116765450D01*
X229082945Y-116624779D01*
X228841753Y-116463027D01*
X228604850Y-116303273D01*
X228391129Y-116162595D01*
X228216757Y-116051416D01*
X228095284Y-115978374D01*
X228040263Y-115952108D01*
X228037037Y-115952346D01*
X227963948Y-115978242D01*
X227834330Y-116038536D01*
X227673986Y-116121309D01*
X227672302Y-116122216D01*
X227459342Y-116228877D01*
X227313417Y-116280985D01*
X227222876Y-116281129D01*
X227176067Y-116231897D01*
X227156253Y-116183435D01*
X227102780Y-116053647D01*
X227020411Y-115854125D01*
X226913529Y-115595477D01*
X226786518Y-115288307D01*
X226643759Y-114943222D01*
X226489635Y-114570826D01*
X226349937Y-114232043D01*
X226207796Y-113884416D01*
X226082036Y-113573772D01*
X225976876Y-113310678D01*
X225896538Y-113105698D01*
X225845240Y-112969398D01*
X225827203Y-112912343D01*
X225861651Y-112860025D01*
X225957348Y-112772671D01*
X226092814Y-112671174D01*
X226418034Y-112405645D01*
X226709075Y-112066345D01*
X226922057Y-111693013D01*
X227055669Y-111296672D01*
X227108599Y-110888345D01*
X227079536Y-110479055D01*
X226967168Y-110079826D01*
X226770184Y-109701679D01*
X226487273Y-109355639D01*
X226339760Y-109220879D01*
X225986340Y-108982599D01*
X225608175Y-108827254D01*
X225216319Y-108751145D01*
X224821823Y-108750574D01*
X224435742Y-108821842D01*
X224069129Y-108961250D01*
X223733037Y-109165101D01*
X223438518Y-109429696D01*
X223196627Y-109751336D01*
X223018417Y-110126323D01*
X222914940Y-110550958D01*
X222895949Y-110755629D01*
X222922077Y-111199057D01*
X223039744Y-111619761D01*
X223245470Y-112010304D01*
X223535777Y-112363253D01*
X223907185Y-112671174D01*
X224037602Y-112768538D01*
X224135406Y-112856850D01*
X224172796Y-112912261D01*
X224157886Y-112960565D01*
X224109504Y-113089994D01*
X224031709Y-113289085D01*
X223928718Y-113547271D01*
X223804749Y-113853987D01*
X223664020Y-114198666D01*
X223510749Y-114570744D01*
X223371285Y-114907904D01*
X223227276Y-115256144D01*
X223098562Y-115567498D01*
X222989526Y-115831357D01*
X222904551Y-116037115D01*
X222848020Y-116174164D01*
X222824317Y-116231897D01*
X222824041Y-116232580D01*
X222776620Y-116281330D01*
X222685636Y-116280772D01*
X222539348Y-116228300D01*
X222326013Y-116121309D01*
X222309220Y-116112300D01*
X222150802Y-116031251D01*
X222025706Y-115973880D01*
X221959737Y-115952108D01*
X221905666Y-115977838D01*
X221784825Y-116050431D01*
X221610941Y-116161252D01*
X221397564Y-116301664D01*
X221158246Y-116463027D01*
X220922446Y-116621224D01*
X220704351Y-116762484D01*
X220523820Y-116874160D01*
X220394933Y-116947549D01*
X220331769Y-116973947D01*
X220321011Y-116970595D01*
X220246015Y-116917764D01*
X220117878Y-116808636D01*
X219947868Y-116653414D01*
X219747252Y-116462302D01*
X219527298Y-116245500D01*
X218800065Y-115517053D01*
X219366476Y-114683893D01*
X219932888Y-113850733D01*
X219760670Y-113478144D01*
X219760160Y-113477041D01*
X219656744Y-113239524D01*
X219551066Y-112975030D01*
X219465929Y-112740613D01*
X219453045Y-112702805D01*
X219388087Y-112527283D01*
X219329511Y-112390891D01*
X219288657Y-112320502D01*
X219272020Y-112310563D01*
X219172143Y-112277215D01*
X219002553Y-112234070D01*
X218781779Y-112185617D01*
X218528352Y-112136344D01*
X218452442Y-112122446D01*
X218177807Y-112071845D01*
X217921550Y-112024182D01*
X217709463Y-111984273D01*
X217567337Y-111956933D01*
X217311877Y-111906511D01*
X217311877Y-110842741D01*
X217311933Y-110711942D01*
X217313012Y-110392838D01*
X217316200Y-110154686D01*
X217322447Y-109985315D01*
X217332703Y-109872552D01*
X217347919Y-109804227D01*
X217369044Y-109768167D01*
X217397030Y-109752201D01*
X217424123Y-109745732D01*
X217534580Y-109722851D01*
X217710799Y-109687909D01*
X217934857Y-109644313D01*
X218188837Y-109595472D01*
X218454816Y-109544795D01*
X218714875Y-109495689D01*
X218951094Y-109451562D01*
X219145552Y-109415823D01*
X219280329Y-109391880D01*
X219337504Y-109383142D01*
X219341369Y-109377867D01*
X219372457Y-109309403D01*
X219426255Y-109178407D01*
X219493985Y-109006035D01*
X219587980Y-108773789D01*
X219703689Y-108505377D01*
X219812146Y-108268819D01*
X219837003Y-108215720D01*
X219906745Y-108049448D01*
X219948530Y-107921201D01*
X219954042Y-107855218D01*
X219951200Y-107850542D01*
X219906051Y-107781675D01*
X219816545Y-107647900D01*
X219691462Y-107462250D01*
X219539577Y-107237759D01*
X219369667Y-106987460D01*
X219178216Y-106703086D01*
X219034601Y-106482185D01*
X218936885Y-106320186D01*
X218879416Y-106207056D01*
X218856542Y-106132761D01*
X218862614Y-106087268D01*
X218864657Y-106083855D01*
X218919578Y-106017561D01*
X219031545Y-105896754D01*
X219189031Y-105733410D01*
X219380509Y-105539503D01*
X219594452Y-105327008D01*
X219816384Y-105111368D01*
X220033781Y-104908681D01*
X220193531Y-104771927D01*
X220299776Y-104697600D01*
X220356660Y-104682195D01*
X220364093Y-104685655D01*
X220442368Y-104732309D01*
X220584475Y-104823474D01*
X220777098Y-104950395D01*
X221006923Y-105104320D01*
X221260635Y-105276495D01*
X222087683Y-105841276D01*
X222461178Y-105671760D01*
X222472031Y-105666848D01*
X222701340Y-105567507D01*
X222944612Y-105468704D01*
X223150957Y-105391142D01*
X223151869Y-105390822D01*
X223315690Y-105330828D01*
X223441801Y-105280159D01*
X223502967Y-105249753D01*
X223503957Y-105248650D01*
X223524721Y-105186385D01*
X223558894Y-105044785D01*
X223603178Y-104839115D01*
X223654277Y-104584636D01*
X223708893Y-104296612D01*
X223710797Y-104286290D01*
X223765321Y-103992385D01*
X223815258Y-103726238D01*
X223857375Y-103504842D01*
X223888441Y-103345189D01*
X223905224Y-103264272D01*
X223906298Y-103259788D01*
X223917347Y-103225148D01*
X223939734Y-103199111D01*
X223985743Y-103180450D01*
X224067655Y-103167937D01*
X224197754Y-103160342D01*
X224388323Y-103156439D01*
X224651643Y-103154997D01*
X225000000Y-103154790D01*
X225043769Y-103154790D01*
X225381958Y-103155075D01*
G37*
X225381958Y-103155075D02*
X225636491Y-103156732D01*
X225819652Y-103160989D01*
X225943724Y-103169075D01*
X226020989Y-103182218D01*
X226063731Y-103201646D01*
X226084232Y-103228588D01*
X226094775Y-103264272D01*
X226095077Y-103265553D01*
X226112402Y-103349439D01*
X226143898Y-103511480D01*
X226186336Y-103734684D01*
X226236482Y-104002059D01*
X226291106Y-104296612D01*
X226295561Y-104320713D01*
X226350016Y-104606599D01*
X226400687Y-104857709D01*
X226444279Y-105058779D01*
X226477493Y-105194548D01*
X226497032Y-105249753D01*
X226497137Y-105249841D01*
X226558715Y-105280382D01*
X226685095Y-105331129D01*
X226849042Y-105391142D01*
X226858275Y-105394401D01*
X227067872Y-105473617D01*
X227311684Y-105572971D01*
X227538821Y-105671760D01*
X227912316Y-105841276D01*
X228739364Y-105276495D01*
X228797616Y-105236772D01*
X229047133Y-105067926D01*
X229269778Y-104919292D01*
X229452237Y-104799623D01*
X229581196Y-104717672D01*
X229643339Y-104682195D01*
X229685920Y-104690327D01*
X229782592Y-104753337D01*
X229931992Y-104878117D01*
X230138262Y-105068172D01*
X230405547Y-105327008D01*
X230429465Y-105350568D01*
X230641555Y-105561665D01*
X230829948Y-105752909D01*
X230983111Y-105912319D01*
X231089511Y-106027910D01*
X231137616Y-106087700D01*
X231137772Y-106087990D01*
X231143884Y-106133510D01*
X231121346Y-106207346D01*
X231064473Y-106319602D01*
X230967579Y-106480377D01*
X230824980Y-106699773D01*
X230630990Y-106987891D01*
X230597931Y-107036520D01*
X230430742Y-107282877D01*
X230283205Y-107500962D01*
X230164108Y-107677739D01*
X230082239Y-107800170D01*
X230046384Y-107855218D01*
X230043679Y-107866878D01*
X230060644Y-107953877D01*
X230111465Y-108095935D01*
X230187853Y-108268819D01*
X230291666Y-108494918D01*
X230407580Y-108763203D01*
X230506014Y-109006035D01*
X230530419Y-109068888D01*
X230594332Y-109229370D01*
X230641284Y-109341173D01*
X230662495Y-109383142D01*
X230685908Y-109386278D01*
X230791134Y-109404419D01*
X230963365Y-109435748D01*
X231184681Y-109476858D01*
X231437161Y-109524341D01*
X231702886Y-109574788D01*
X231963935Y-109624792D01*
X232202389Y-109670943D01*
X232400325Y-109709834D01*
X232539826Y-109738056D01*
X232602969Y-109752201D01*
X232613438Y-109756188D01*
X232638954Y-109777698D01*
X232657938Y-109823493D01*
X232671339Y-109905744D01*
X232680107Y-110036622D01*
X232685193Y-110228300D01*
X232687548Y-110492950D01*
X232688122Y-110842741D01*
X232688122Y-111906511D01*
X232432662Y-111956933D01*
X232401761Y-111962975D01*
X232237659Y-111994281D01*
X232010746Y-112036822D01*
X231746811Y-112085781D01*
X231471647Y-112136344D01*
X231363288Y-112156683D01*
X231121161Y-112206162D01*
X230919376Y-112252951D01*
X230776476Y-112292561D01*
X230711001Y-112320502D01*
X230681331Y-112366158D01*
X230627314Y-112486956D01*
X230572056Y-112643295D01*
X230552606Y-112701839D01*
X230481007Y-112894015D01*
X230388654Y-113121461D01*
X230290588Y-113346591D01*
X230238140Y-113464181D01*
X230163418Y-113639825D01*
X230112067Y-113771364D01*
X230092975Y-113836755D01*
X230094036Y-113841690D01*
X230130250Y-113911065D01*
X230211910Y-114044949D01*
X230330729Y-114230366D01*
X230478423Y-114454342D01*
X230646705Y-114703900D01*
X231200434Y-115516552D01*
X230472952Y-116245249D01*
X230402591Y-116315369D01*
X230187449Y-116525255D01*
X229995177Y-116706257D01*
X229837040Y-116848173D01*
X229724303Y-116940803D01*
X229668230Y-116973947D01*
X229607336Y-116948730D01*
X229479816Y-116876335D01*
X229300326Y-116765450D01*
X229082945Y-116624779D01*
X228841753Y-116463027D01*
X228604850Y-116303273D01*
X228391129Y-116162595D01*
X228216757Y-116051416D01*
X228095284Y-115978374D01*
X228040263Y-115952108D01*
X228037037Y-115952346D01*
X227963948Y-115978242D01*
X227834330Y-116038536D01*
X227673986Y-116121309D01*
X227672302Y-116122216D01*
X227459342Y-116228877D01*
X227313417Y-116280985D01*
X227222876Y-116281129D01*
X227176067Y-116231897D01*
X227156253Y-116183435D01*
X227102780Y-116053647D01*
X227020411Y-115854125D01*
X226913529Y-115595477D01*
X226786518Y-115288307D01*
X226643759Y-114943222D01*
X226489635Y-114570826D01*
X226349937Y-114232043D01*
X226207796Y-113884416D01*
X226082036Y-113573772D01*
X225976876Y-113310678D01*
X225896538Y-113105698D01*
X225845240Y-112969398D01*
X225827203Y-112912343D01*
X225861651Y-112860025D01*
X225957348Y-112772671D01*
X226092814Y-112671174D01*
X226418034Y-112405645D01*
X226709075Y-112066345D01*
X226922057Y-111693013D01*
X227055669Y-111296672D01*
X227108599Y-110888345D01*
X227079536Y-110479055D01*
X226967168Y-110079826D01*
X226770184Y-109701679D01*
X226487273Y-109355639D01*
X226339760Y-109220879D01*
X225986340Y-108982599D01*
X225608175Y-108827254D01*
X225216319Y-108751145D01*
X224821823Y-108750574D01*
X224435742Y-108821842D01*
X224069129Y-108961250D01*
X223733037Y-109165101D01*
X223438518Y-109429696D01*
X223196627Y-109751336D01*
X223018417Y-110126323D01*
X222914940Y-110550958D01*
X222895949Y-110755629D01*
X222922077Y-111199057D01*
X223039744Y-111619761D01*
X223245470Y-112010304D01*
X223535777Y-112363253D01*
X223907185Y-112671174D01*
X224037602Y-112768538D01*
X224135406Y-112856850D01*
X224172796Y-112912261D01*
X224157886Y-112960565D01*
X224109504Y-113089994D01*
X224031709Y-113289085D01*
X223928718Y-113547271D01*
X223804749Y-113853987D01*
X223664020Y-114198666D01*
X223510749Y-114570744D01*
X223371285Y-114907904D01*
X223227276Y-115256144D01*
X223098562Y-115567498D01*
X222989526Y-115831357D01*
X222904551Y-116037115D01*
X222848020Y-116174164D01*
X222824317Y-116231897D01*
X222824041Y-116232580D01*
X222776620Y-116281330D01*
X222685636Y-116280772D01*
X222539348Y-116228300D01*
X222326013Y-116121309D01*
X222309220Y-116112300D01*
X222150802Y-116031251D01*
X222025706Y-115973880D01*
X221959737Y-115952108D01*
X221905666Y-115977838D01*
X221784825Y-116050431D01*
X221610941Y-116161252D01*
X221397564Y-116301664D01*
X221158246Y-116463027D01*
X220922446Y-116621224D01*
X220704351Y-116762484D01*
X220523820Y-116874160D01*
X220394933Y-116947549D01*
X220331769Y-116973947D01*
X220321011Y-116970595D01*
X220246015Y-116917764D01*
X220117878Y-116808636D01*
X219947868Y-116653414D01*
X219747252Y-116462302D01*
X219527298Y-116245500D01*
X218800065Y-115517053D01*
X219366476Y-114683893D01*
X219932888Y-113850733D01*
X219760670Y-113478144D01*
X219760160Y-113477041D01*
X219656744Y-113239524D01*
X219551066Y-112975030D01*
X219465929Y-112740613D01*
X219453045Y-112702805D01*
X219388087Y-112527283D01*
X219329511Y-112390891D01*
X219288657Y-112320502D01*
X219272020Y-112310563D01*
X219172143Y-112277215D01*
X219002553Y-112234070D01*
X218781779Y-112185617D01*
X218528352Y-112136344D01*
X218452442Y-112122446D01*
X218177807Y-112071845D01*
X217921550Y-112024182D01*
X217709463Y-111984273D01*
X217567337Y-111956933D01*
X217311877Y-111906511D01*
X217311877Y-110842741D01*
X217311933Y-110711942D01*
X217313012Y-110392838D01*
X217316200Y-110154686D01*
X217322447Y-109985315D01*
X217332703Y-109872552D01*
X217347919Y-109804227D01*
X217369044Y-109768167D01*
X217397030Y-109752201D01*
X217424123Y-109745732D01*
X217534580Y-109722851D01*
X217710799Y-109687909D01*
X217934857Y-109644313D01*
X218188837Y-109595472D01*
X218454816Y-109544795D01*
X218714875Y-109495689D01*
X218951094Y-109451562D01*
X219145552Y-109415823D01*
X219280329Y-109391880D01*
X219337504Y-109383142D01*
X219341369Y-109377867D01*
X219372457Y-109309403D01*
X219426255Y-109178407D01*
X219493985Y-109006035D01*
X219587980Y-108773789D01*
X219703689Y-108505377D01*
X219812146Y-108268819D01*
X219837003Y-108215720D01*
X219906745Y-108049448D01*
X219948530Y-107921201D01*
X219954042Y-107855218D01*
X219951200Y-107850542D01*
X219906051Y-107781675D01*
X219816545Y-107647900D01*
X219691462Y-107462250D01*
X219539577Y-107237759D01*
X219369667Y-106987460D01*
X219178216Y-106703086D01*
X219034601Y-106482185D01*
X218936885Y-106320186D01*
X218879416Y-106207056D01*
X218856542Y-106132761D01*
X218862614Y-106087268D01*
X218864657Y-106083855D01*
X218919578Y-106017561D01*
X219031545Y-105896754D01*
X219189031Y-105733410D01*
X219380509Y-105539503D01*
X219594452Y-105327008D01*
X219816384Y-105111368D01*
X220033781Y-104908681D01*
X220193531Y-104771927D01*
X220299776Y-104697600D01*
X220356660Y-104682195D01*
X220364093Y-104685655D01*
X220442368Y-104732309D01*
X220584475Y-104823474D01*
X220777098Y-104950395D01*
X221006923Y-105104320D01*
X221260635Y-105276495D01*
X222087683Y-105841276D01*
X222461178Y-105671760D01*
X222472031Y-105666848D01*
X222701340Y-105567507D01*
X222944612Y-105468704D01*
X223150957Y-105391142D01*
X223151869Y-105390822D01*
X223315690Y-105330828D01*
X223441801Y-105280159D01*
X223502967Y-105249753D01*
X223503957Y-105248650D01*
X223524721Y-105186385D01*
X223558894Y-105044785D01*
X223603178Y-104839115D01*
X223654277Y-104584636D01*
X223708893Y-104296612D01*
X223710797Y-104286290D01*
X223765321Y-103992385D01*
X223815258Y-103726238D01*
X223857375Y-103504842D01*
X223888441Y-103345189D01*
X223905224Y-103264272D01*
X223906298Y-103259788D01*
X223917347Y-103225148D01*
X223939734Y-103199111D01*
X223985743Y-103180450D01*
X224067655Y-103167937D01*
X224197754Y-103160342D01*
X224388323Y-103156439D01*
X224651643Y-103154997D01*
X225000000Y-103154790D01*
X225043769Y-103154790D01*
X225381958Y-103155075D01*
%TD*%
M02*
