%TF.GenerationSoftware,KiCad,Pcbnew,(5.99.0-12550-g77f47b6e47)*%
%TF.CreationDate,2021-11-06T20:02:58+00:00*%
%TF.ProjectId,max1709,6d617831-3730-4392-9e6b-696361645f70,rev?*%
%TF.SameCoordinates,Original*%
%TF.FileFunction,Soldermask,Top*%
%TF.FilePolarity,Negative*%
%FSLAX46Y46*%
G04 Gerber Fmt 4.6, Leading zero omitted, Abs format (unit mm)*
G04 Created by KiCad (PCBNEW (5.99.0-12550-g77f47b6e47)) date 2021-11-06 20:02:58*
%MOMM*%
%LPD*%
G01*
G04 APERTURE LIST*
G04 Aperture macros list*
%AMRoundRect*
0 Rectangle with rounded corners*
0 $1 Rounding radius*
0 $2 $3 $4 $5 $6 $7 $8 $9 X,Y pos of 4 corners*
0 Add a 4 corners polygon primitive as box body*
4,1,4,$2,$3,$4,$5,$6,$7,$8,$9,$2,$3,0*
0 Add four circle primitives for the rounded corners*
1,1,$1+$1,$2,$3*
1,1,$1+$1,$4,$5*
1,1,$1+$1,$6,$7*
1,1,$1+$1,$8,$9*
0 Add four rect primitives between the rounded corners*
20,1,$1+$1,$2,$3,$4,$5,0*
20,1,$1+$1,$4,$5,$6,$7,0*
20,1,$1+$1,$6,$7,$8,$9,0*
20,1,$1+$1,$8,$9,$2,$3,0*%
G04 Aperture macros list end*
%ADD10R,2.200000X1.200000*%
%ADD11R,6.400000X5.800000*%
%ADD12R,1.700000X1.700000*%
%ADD13O,1.700000X1.700000*%
%ADD14R,4.000000X2.000000*%
%ADD15C,2.200000*%
%ADD16RoundRect,0.100000X-0.637500X-0.100000X0.637500X-0.100000X0.637500X0.100000X-0.637500X0.100000X0*%
%ADD17R,2.850000X6.700000*%
%ADD18RoundRect,0.250000X-0.625000X0.400000X-0.625000X-0.400000X0.625000X-0.400000X0.625000X0.400000X0*%
%ADD19RoundRect,0.250000X-0.625000X0.312500X-0.625000X-0.312500X0.625000X-0.312500X0.625000X0.312500X0*%
%ADD20RoundRect,0.250000X-0.875000X-1.025000X0.875000X-1.025000X0.875000X1.025000X-0.875000X1.025000X0*%
%ADD21RoundRect,0.250000X-1.025000X0.875000X-1.025000X-0.875000X1.025000X-0.875000X1.025000X0.875000X0*%
%ADD22RoundRect,0.250000X-0.650000X0.412500X-0.650000X-0.412500X0.650000X-0.412500X0.650000X0.412500X0*%
G04 APERTURE END LIST*
D10*
%TO.C,D1*%
X225950000Y-117220000D03*
X225950000Y-121780000D03*
D11*
X232250000Y-119500000D03*
%TD*%
D12*
%TO.C,SW1*%
X204500000Y-125200000D03*
D13*
X207040000Y-125200000D03*
%TD*%
D14*
%TO.C,L1*%
X212250000Y-118950000D03*
X212250000Y-123050000D03*
%TD*%
D12*
%TO.C,TP3*%
X240400000Y-115800000D03*
%TD*%
%TO.C,TP2*%
X240400000Y-103800000D03*
%TD*%
%TO.C,TP1*%
X209900000Y-103800000D03*
%TD*%
D15*
%TO.C,REF\u002A\u002A*%
X245500000Y-104000000D03*
%TD*%
%TO.C,REF\u002A\u002A*%
X204500000Y-104000000D03*
%TD*%
%TO.C,REF\u002A\u002A*%
X204500000Y-141000000D03*
%TD*%
%TO.C,REF\u002A\u002A*%
X245500000Y-141000000D03*
%TD*%
D16*
%TO.C,U1*%
X216887500Y-124275000D03*
X216887500Y-124925000D03*
X216887500Y-125575000D03*
X216887500Y-126225000D03*
X216887500Y-126875000D03*
X216887500Y-127525000D03*
X216887500Y-128175000D03*
X216887500Y-128825000D03*
X216887500Y-129475000D03*
X216887500Y-130125000D03*
X216887500Y-130775000D03*
X216887500Y-131425000D03*
X216887500Y-132075000D03*
X216887500Y-132725000D03*
X222612500Y-132725000D03*
X222612500Y-132075000D03*
X222612500Y-131425000D03*
X222612500Y-130775000D03*
X222612500Y-130125000D03*
X222612500Y-129475000D03*
X222612500Y-128825000D03*
X222612500Y-128175000D03*
X222612500Y-127525000D03*
X222612500Y-126875000D03*
X222612500Y-126225000D03*
X222612500Y-125575000D03*
X222612500Y-124925000D03*
X222612500Y-124275000D03*
D17*
X219750000Y-128500000D03*
%TD*%
D18*
%TO.C,R2*%
X227200000Y-135350000D03*
X227200000Y-132250000D03*
%TD*%
D19*
%TO.C,R1*%
X209200000Y-133337500D03*
X209200000Y-136262500D03*
%TD*%
D20*
%TO.C,C7*%
X220450000Y-115000000D03*
X214050000Y-115000000D03*
%TD*%
%TO.C,C6*%
X220450000Y-108500000D03*
X214050000Y-108500000D03*
%TD*%
D21*
%TO.C,C5*%
X243400000Y-127700000D03*
X243400000Y-121300000D03*
%TD*%
D22*
%TO.C,C4*%
X230800000Y-135362500D03*
X230800000Y-132237500D03*
%TD*%
D21*
%TO.C,C3*%
X238400000Y-127700000D03*
X238400000Y-121300000D03*
%TD*%
D22*
%TO.C,C2*%
X214600000Y-136362500D03*
X214600000Y-133237500D03*
%TD*%
%TO.C,C1*%
X211900000Y-133237500D03*
X211900000Y-136362500D03*
%TD*%
M02*
